<?xml version="1.0" encoding="UTF-8" standalone="no"?>
<svg width="1294px" height="1294px" viewBox="0 0 1294 1294" version="1.1" xmlns="http://www.w3.org/2000/svg" xmlns:xlink="http://www.w3.org/1999/xlink" xmlns:sketch="http://www.bohemiancoding.com/sketch/ns">
    <!-- Generator: Sketch 3.4 (15588) - http://www.bohemiancoding.com/sketch -->
    <title>neontribe_logo_vintage_2</title>
    <desc>Created with Sketch.</desc>
    <defs></defs>
    <g id="neontribe_logo_vintage_light" stroke="none" stroke-width="1" fill="none" fill-rule="evenodd" sketch:type="MSPage">
        <g id="neontribe_logo_vintage_2" sketch:type="MSLayerGroup" fill="#FAFDF7">
            <g id="Outer-Badge" sketch:type="MSShapeGroup">
                <path d="M647,124.166498 C358.262771,124.166498 124.192549,358.143349 124.192549,646.779924 C124.192549,935.412007 358.262771,1169.38886 647,1169.38886 C935.746215,1169.38886 1169.81644,935.412007 1169.81644,646.779924 C1169.81644,358.143349 935.746215,124.166498 647,124.166498 L647,124.166498 Z M770.069285,74.9772388 L884.058104,53.4367266 C903.279396,49.8077163 921.786292,58.0358685 932.034951,74.7796194 L993.594306,175.273564 L1106.44638,202.18573 C1125.47447,206.717502 1139.04799,221.799453 1141.64049,241.282927 L1157.19544,358.260125 L1249.39744,428.953965 C1264.94341,440.878498 1271.24267,460.204775 1265.7252,479.054969 L1232.57544,592.277398 L1288.18149,694.545426 C1297.5585,711.792208 1295.4872,732.021246 1282.81229,746.986422 L1206.69993,836.862817 L1216.1039,953.018097 C1217.68545,972.604872 1207.60753,990.23791 1189.97228,998.731052 L1084.05299,1049.73482 L1045.6194,1159.69203 C1039.13592,1178.23233 1022.79018,1190.21974 1003.2409,1190.77217 L885.832861,1194.0823 L806.215917,1278.82508 C792.781681,1293.11206 772.998757,1297.38334 754.918701,1289.89626 L646.321549,1244.94683 L539.278993,1289.8199 C521.225896,1297.38334 501.425,1293.20638 487.932354,1278.9688 L406.922562,1193.52537 L290.974771,1190.78116 C271.4165,1190.31855 255.02134,1178.403 248.456986,1159.88965 L209.030424,1048.71528 L104.216424,998.820879 C86.5452361,990.408581 76.3864375,972.824948 77.8781319,953.220208 L86.8822153,835.560325 L11.3269931,747.148111 C-1.4153125,732.23683 -3.58096528,712.016775 5.72415278,694.734062 L61.5728333,590.907536 L28.3377014,479.261571 C22.7348611,460.429343 28.9487569,441.071626 44.4453056,429.084215 L137.491993,357.069917 L152.328062,241.489529 C154.830694,221.997073 168.341312,206.856734 187.351431,202.230644 L301.510986,174.469612 L361.857215,74.9502907 C372.038479,58.1661176 390.504937,49.8571211 409.739708,53.4007958 L525.269646,74.685301 L620.679681,8.43340484 C636.778299,-2.74107266 657.015021,-2.78598616 673.154076,8.31662976 L770.069285,74.9772388 L770.069285,74.9772388 Z" id="Fill-387"></path>
                <path d="M647,202.630374 C401.611771,202.630374 202.690722,401.480381 202.690722,646.779924 C202.690722,892.074976 401.611771,1090.92498 647,1090.92498 C892.397215,1090.92498 1091.31826,892.074976 1091.31826,646.779924 C1091.31826,401.480381 892.397215,202.630374 647,202.630374 L647,202.630374 Z M647,143.483792 C925.070715,143.483792 1150.48731,368.814796 1150.48731,646.779924 C1150.48731,924.740561 925.070715,1150.07156 647,1150.07156 C368.938271,1150.07156 143.521674,924.740561 143.521674,646.779924 C143.521674,368.814796 368.938271,143.483792 647,143.483792 L647,143.483792 Z" id="Fill-389"></path>
                <path d="M647,300.115114 C455.474521,300.115114 300.216986,455.322678 300.216986,646.775433 C300.216986,838.232678 455.474521,993.435751 647,993.435751 C838.534465,993.435751 993.796493,838.232678 993.796493,646.775433 C993.796493,455.322678 838.534465,300.115114 647,300.115114 L647,300.115114 Z M647,277.231689 C851.173431,277.231689 1016.68861,442.684021 1016.68861,646.775433 C1016.68861,850.871336 851.173431,1016.32367 647,1016.32367 C442.831063,1016.32367 277.315882,850.871336 277.315882,646.775433 C277.315882,442.684021 442.831063,277.231689 647,277.231689 L647,277.231689 Z" id="Fill-390"></path>
                <path d="M638.508125,217.146415 L655.496368,217.146415 L655.496368,264.893952 L638.508125,264.893952 L638.508125,217.146415 Z" id="Fill-391"></path>
                <path d="M671.828625,217.775204 L688.758458,219.09117 L685.060674,266.694983 L668.13084,265.379017 L671.828625,217.775204" id="Fill-392"></path>
                <path d="M705.000854,220.986519 L721.777924,223.609467 L714.400326,270.782111 L697.623257,268.159163 L705.000854,220.986519" id="Fill-393"></path>
                <path d="M737.822625,226.757903 L754.34359,230.669869 L743.335604,277.132879 L726.810146,273.220913 L737.822625,226.757903" id="Fill-394"></path>
                <path d="M770.096243,235.053426 L786.26675,240.231952 L771.686785,285.702374 L755.516278,280.523848 L770.096243,235.053426" id="Fill-395"></path>
                <path d="M801.633,245.823682 L817.354201,252.237329 L799.296611,296.44119 L783.57541,290.023052 L801.633,245.823682" id="Fill-396"></path>
                <path d="M832.239694,258.99681 L847.412743,266.614138 L825.985361,309.28645 L810.812313,301.673612 L832.239694,258.99681" id="Fill-397"></path>
                <path d="M861.732111,274.509931 L876.271639,283.277045 L851.600271,324.161799 L837.060743,315.394685 L861.732111,274.509931" id="Fill-398"></path>
                <path d="M889.935021,292.255253 L903.751167,302.122747 L875.984083,340.97292 L862.167938,331.105426 L889.935021,292.255253" id="Fill-399"></path>
                <path d="M916.677688,312.129474 L929.689576,323.038962 L898.993021,359.625495 L885.985625,348.716007 L916.677688,312.129474" id="Fill-400"></path>
                <path d="M941.798361,334.020311 L953.929611,345.904422 L920.492292,379.998256 L908.361042,368.114145 L941.798361,334.020311" id="Fill-401"></path>
                <path d="M965.153264,357.784042 L976.318507,370.570913 L940.342611,401.974429 L929.168382,389.192048 L965.153264,357.784042" id="Fill-402"></path>
                <path d="M986.589632,383.290415 L996.734951,396.903696 L958.431653,425.428256 L948.286333,411.814976 L986.589632,383.290415" id="Fill-403"></path>
                <path d="M1005.98615,410.373253 L1015.04865,424.732097 L974.64709,450.20254 L965.584597,435.848187 L1005.98615,410.373253" id="Fill-404"></path>
                <path d="M1023.2305,438.884339 L1031.15176,453.903412 L988.894569,476.171522 L980.977806,461.15245 L1023.2305,438.884339" id="Fill-405"></path>
                <path d="M1038.21035,468.644021 L1044.94094,484.224512 L1001.08872,503.15555 L994.358125,487.570567 L1038.21035,468.644021" id="Fill-406"></path>
                <path d="M1050.83583,499.468152 L1056.33983,515.524727 L1011.15317,531.006408 L1005.64917,514.945343 L1050.83583,499.468152" id="Fill-407"></path>
                <path d="M1061.03956,531.181571 L1065.28101,547.61991 L1019.03399,559.548934 L1014.78805,543.115087 L1061.03956,531.181571" id="Fill-408"></path>
                <path d="M1068.74965,563.586657 L1071.70608,580.30346 L1024.67277,588.621439 L1021.71634,571.904637 L1068.74965,563.586657" id="Fill-409"></path>
                <path d="M1073.93014,596.499266 L1075.58358,613.391232 L1028.04256,618.035287 L1026.38912,601.147813 L1073.93014,596.499266" id="Fill-410"></path>
                <path d="M1076.5451,629.708304 L1076.88208,646.672131 L1029.12988,647.628789 L1028.78841,630.660471 L1076.5451,629.708304" id="Fill-411"></path>
                <path d="M1076.57655,663.016152 L1075.60156,679.966505 L1027.91226,677.217799 L1028.88726,660.271938 L1076.57655,663.016152" id="Fill-412"></path>
                <path d="M1074.02449,696.234173 L1071.73753,713.054277 L1024.40768,706.618173 L1026.69914,689.802561 L1074.02449,696.234173" id="Fill-413"></path>
                <path d="M1068.9114,729.151273 L1065.32594,745.742318 L1018.6386,735.66373 L1022.22406,719.072685 L1068.9114,729.151273" id="Fill-414"></path>
                <path d="M1061.25972,761.569834 L1056.40273,777.841993 L1010.63647,764.179308 L1015.48897,747.91164 L1061.25972,761.569834" id="Fill-415"></path>
                <path d="M1051.1189,793.305709 L1045.01283,809.142208 L1000.44172,791.980761 L1006.54329,776.139772 L1051.1189,793.305709" id="Fill-416"></path>
                <path d="M1038.55182,824.156789 L1031.23263,839.476782 L988.13075,818.910893 L995.440951,803.5909 L1038.55182,824.156789" id="Fill-417"></path>
                <path d="M1023.62589,853.943419 L1015.14749,868.648097 L973.761958,844.808014 L982.240354,830.098844 L1023.62589,853.943419" id="Fill-418"></path>
                <path d="M1006.43995,882.481453 L996.847278,896.489972 L957.434194,869.519419 L967.026868,855.5109 L1006.43995,882.481453" id="Fill-419"></path>
                <path d="M987.097347,909.604713 L976.448806,922.827246 L939.241813,892.883419 L949.890354,879.660886 L987.097347,909.604713" id="Fill-420"></path>
                <path d="M965.701417,935.151509 L954.064403,947.511702 L919.292646,914.774256 L930.934153,902.418554 L965.701417,935.151509" id="Fill-421"></path>
                <path d="M942.400431,958.964644 L929.837847,970.386145 L897.699021,935.048208 L910.27059,923.635689 L942.400431,958.964644" id="Fill-422"></path>
                <path d="M917.320194,980.900394 L903.908424,991.311343 L874.613701,953.597481 L888.025472,943.186533 L917.320194,980.900394" id="Fill-423"></path>
                <path d="M890.617965,1000.82851 L876.433389,1010.16603 L850.153507,970.30081 L864.329097,960.958803 L890.617965,1000.82851" id="Fill-424"></path>
                <path d="M862.446507,1018.62773 L847.587972,1026.8469 L824.471201,985.059384 L839.329736,976.844706 L862.446507,1018.62773" id="Fill-425"></path>
                <path d="M832.985542,1034.19475 L817.529431,1041.2282 L797.719549,997.783377 L813.171167,990.745433 L832.985542,1034.19475" id="Fill-426"></path>
                <path d="M802.401313,1047.43075 L786.455458,1053.25154 L770.069285,1008.40093 L786.019632,1002.58014 L802.401313,1047.43075" id="Fill-427"></path>
                <path d="M770.887021,1058.2594 L754.536792,1062.83159 L741.673174,1016.84017 L758.027896,1012.27247 L770.887021,1058.2594" id="Fill-428"></path>
                <path d="M738.631375,1066.60882 L721.971125,1069.90547 L712.710938,1023.06069 L729.371188,1019.77302 L738.631375,1066.60882" id="Fill-429"></path>
                <path d="M705.81859,1072.44757 L688.95166,1074.43724 L683.357806,1027.01757 L700.21575,1025.03239 L705.81859,1072.44757" id="Fill-430"></path>
                <path d="M672.655347,1075.72626 L655.689569,1076.39996 L653.780021,1028.69284 L670.745799,1028.01465 L672.655347,1075.72626" id="Fill-431"></path>
                <path d="M639.33934,1076.42242 L622.369069,1075.78015 L624.161799,1028.06406 L641.132069,1028.70632 L639.33934,1076.42242" id="Fill-432"></path>
                <path d="M606.063771,1074.53605 L589.19684,1072.5868 L594.682861,1025.15815 L611.554285,1027.1074 L606.063771,1074.53605" id="Fill-433"></path>
                <path d="M573.039813,1070.08063 L556.375069,1066.82889 L565.522931,1019.96615 L582.187674,1023.21789 L573.039813,1070.08063" id="Fill-434"></path>
                <path d="M540.460667,1063.07862 L524.096958,1058.55134 L536.843757,1012.53297 L553.207465,1017.06474 L540.460667,1063.07862" id="Fill-435"></path>
                <path d="M508.519535,1053.57941 L492.551215,1047.79455 L508.834049,1002.90801 L524.793382,1008.68837 L508.519535,1053.57941" id="Fill-436"></path>
                <path d="M477.409618,1041.63242 L461.944521,1034.62592 L481.651062,991.140671 L497.120653,998.142685 L477.409618,1041.63242" id="Fill-437"></path>
                <path d="M447.319625,1027.314 L432.438625,1019.13525 L455.465535,977.298332 L470.342042,985.47708 L447.319625,1027.314" id="Fill-438"></path>
                <path d="M418.433771,1010.70948 L404.231222,1001.39891 L430.421243,961.470817 L444.628285,970.781384 L418.433771,1010.70948" id="Fill-439"></path>
                <path d="M390.913806,991.917675 L377.484062,981.538166 L406.688924,943.756934 L420.12316,954.136443 L390.913806,991.917675" id="Fill-440"></path>
                <path d="M364.943944,971.050865 L352.345417,959.660803 L384.394382,924.255495 L396.983924,935.645557 L364.943944,971.050865" id="Fill-441"></path>
                <path d="M340.658979,948.230318 L328.986021,935.906055 L363.681396,903.087765 L375.354354,915.416519 L340.658979,948.230318" id="Fill-442"></path>
                <path d="M318.22066,923.60874 L307.540667,910.408664 L344.671278,880.379502 L355.351271,893.575087 L318.22066,923.60874" id="Fill-443"></path>
                <path d="M297.754792,897.316381 L288.126174,883.33481 L327.471861,856.265446 L337.104972,870.247017 L297.754792,897.316381" id="Fill-444"></path>
                <path d="M279.387181,869.52391 L270.877333,854.832706 L312.204458,830.893813 L320.714306,845.585017 L279.387181,869.52391" id="Fill-445"></path>
                <path d="M263.230153,840.384035 L255.879514,825.082007 L298.940958,804.417308 L306.291597,819.719336 L263.230153,840.384035" id="Fill-446"></path>
                <path d="M249.378062,810.085391 L243.240549,794.262367 L287.766729,776.988637 L293.913229,792.816152 L249.378062,810.085391" id="Fill-447"></path>
                <path d="M237.920771,778.803142 L233.018847,762.548948 L278.758153,748.782962 L283.655583,765.037156 L237.920771,778.803142" id="Fill-448"></path>
                <path d="M228.916688,746.730415 L225.295285,730.148353 L271.96016,719.961972 L275.581563,736.544035 L228.916688,746.730415" id="Fill-449"></path>
                <path d="M222.428715,714.055848 L220.101312,697.240235 L267.417681,690.696339 L269.745083,707.511952 L222.428715,714.055848" id="Fill-450"></path>
                <path d="M218.488306,680.977059 L217.472875,664.035689 L265.153181,661.174699 L266.168611,678.116069 L218.488306,680.977059" id="Fill-451"></path>
                <path d="M217.12691,647.691668 L217.427944,630.723349 L265.184632,631.55874 L264.883597,648.536042 L217.12691,647.691668" id="Fill-452"></path>
                <path d="M218.349021,614.406277 L219.962028,597.505329 L267.507542,602.041592 L265.899028,618.94254 L218.349021,614.406277" id="Fill-453"></path>
                <path d="M222.14116,581.309522 L225.061646,564.588228 L272.117417,572.789433 L269.201424,589.515218 L222.14116,581.309522" id="Fill-454"></path>
                <path d="M228.49434,548.608007 L232.695347,532.156194 L278.973819,543.981917 L274.768319,560.429239 L228.49434,548.608007" id="Fill-455"></path>
                <path d="M237.359139,516.494858 L242.827187,500.42481 L288.045299,515.798699 L282.581743,531.864256 L237.359139,516.494858" id="Fill-456"></path>
                <path d="M248.686132,485.167696 L255.380785,469.569239 L299.273444,488.392484 L292.583285,503.990941 L248.686132,485.167696" id="Fill-457"></path>
                <path d="M262.407924,454.810664 L270.293236,439.773626 L312.595354,461.947419 L304.710042,476.975474 L262.407924,454.810664" id="Fill-458"></path>
                <path d="M278.439146,425.603419 L287.465694,411.226609 L327.921167,436.602734 L318.894618,450.984035 L278.439146,425.603419" id="Fill-459"></path>
                <path d="M296.685444,397.730104 L306.794819,384.098858 L345.165514,412.533592 L335.051646,426.164837 L296.685444,397.730104" id="Fill-460"></path>
                <path d="M317.038986,371.352408 L328.177271,358.538588 L364.229549,389.86126 L353.091264,402.670588 L317.038986,371.352408" id="Fill-461"></path>
                <path d="M339.373965,346.632021 L351.473764,334.716471 L384.987465,368.733952 L372.883174,380.649502 L339.373965,346.632021" id="Fill-462"></path>
                <path d="M363.55559,323.708173 L376.540521,312.771737 L407.317951,349.286408 L394.337514,360.218353 L363.55559,323.708173" id="Fill-463"></path>
                <path d="M389.444576,302.733571 L403.238257,292.830145 L431.090708,331.617439 L417.297028,341.511882 L389.444576,302.733571" id="Fill-464"></path>
                <path d="M416.879174,283.816007 L431.396236,275.012962 L456.161958,315.84382 L441.644896,324.642374 L416.879174,283.816007" id="Fill-465"></path>
                <path d="M445.693139,267.094713 L460.852708,259.441453 L482.378938,302.059869 L467.223861,309.713128 L445.693139,267.094713" id="Fill-466"></path>
                <path d="M475.720229,252.646042 L491.427951,246.187481 L509.588882,290.35092 L493.88116,296.80499 L475.720229,252.646042" id="Fill-467"></path>
                <path d="M506.780722,240.568803 L522.93775,235.345363 L537.621056,280.779855 L521.468521,285.998803 L506.780722,240.568803" id="Fill-468"></path>
                <path d="M538.676924,230.925875 L555.193396,226.973488 L566.313708,273.40955 L549.801729,277.361938 L538.676924,230.925875" id="Fill-469"></path>
                <path d="M571.229111,223.789121 L587.997194,221.125751 L595.491611,268.280429 L578.719035,270.939308 L571.229111,223.789121" id="Fill-470"></path>
                <path d="M604.235097,219.194471 L621.160438,217.838083 L624.975042,265.432913 L608.049701,266.78481 L604.235097,219.194471" id="Fill-471"></path>
            </g>
            <g id="Main-Logo" transform="translate(389.000000, 399.000000)" sketch:type="MSShapeGroup">
                <path d="M292.42157,47.1992197 C294.823884,77.5713954 358.644215,63.5186297 362.542066,39.5385628 C365.653471,20.3826276 352.200083,12.8410983 329.673554,16.5544456 C313.49124,19.2256946 290.817521,26.9003033 292.42157,47.1992197 M332.961157,0.138445607 L343.916612,0.138445607 C367.252149,4.56870502 382.294545,17.3132134 377.878843,42.8226213 C371.350909,80.5452929 289.891405,95.6304979 279.273306,55.9567092 C269.425537,19.1462762 306.244545,5.33391213 332.961157,0.138445607" id="Fill-1"></path>
                <path d="M167.522727,49.3885921 C166.926446,47.6843159 164.554215,46.0422866 164.235124,43.9151611 C162.772893,34.0984017 210.568843,9.85968828 221.206281,4.51719038 C225.566116,2.32889121 230.900413,9.92622803 231.068017,11.0842343 C232.539917,21.2133013 208.782149,28.6335565 201.487107,32.9725921 C189.181157,40.2941109 182.849835,48.2402448 167.522727,49.3885921" id="Fill-2"></path>
                <path d="M181.76686,77.8450669 C181.044876,76.3747531 179.422562,75.8059456 177.382314,75.6556946 C171.952397,63.0710962 188.940496,57.3486778 202.581901,49.3885921 C215.942893,41.5970021 223.341074,36.5206632 231.069091,32.9715188 C236.343223,30.5514038 242.968926,35.2510418 243.119339,39.539636 C243.399752,47.4685983 220.992479,57.6287887 214.634298,61.4279937 C202.070496,68.9351799 193.883719,73.2248473 181.76686,77.8450669" id="Fill-3"></path>
                <path d="M139.036612,34.0672782 C147.122397,54.6377197 150.830083,80.3263556 152.184876,105.204709 C138.040661,107.339347 126.519008,98.6988389 116.029835,93.1642343 C105.210826,87.4600607 95.3490909,80.6547615 84.2561157,75.6556946 C82.2480992,95.5371276 85.3444628,120.520657 78.7789256,135.849483 L71.1089256,135.849483 C64.7195868,124.39928 68.142562,103.649611 68.9182645,86.60041 C69.4769421,74.2905565 66.7093388,59.8997259 75.4934711,54.8598766 C97.37,63.287887 115.207934,75.7469184 135.752231,85.5046506 C132.23686,68.3212971 128.791322,55.5467385 128.079008,37.3513368 C130.425455,34.9483933 133.400413,33.1797238 139.036612,34.0672782" id="Fill-4"></path>
                <path d="M438.137603,42.8226213 C445.201653,63.4939456 450.851818,85.5733368 456.763058,107.393008 C462.421818,103.319059 467.280165,95.1185711 474.293719,86.60041 C480.996777,78.4568033 489.17281,62.8017176 500.588099,69.0886506 C502.731488,84.141659 487.896446,94.5122008 479.771983,104.10895 C471.693719,113.653111 465.223802,130.133504 450.19,131.469665 C439.933967,111.439054 436.310083,84.7748598 428.278017,62.5226799 C420.572562,66.9239623 411.309256,74.5706674 399.791901,83.3163515 C389.979587,90.7655837 373.011901,110.118992 364.732727,96.4482929 C369.083967,82.3998201 384.073719,77.0991778 394.314711,69.0886506 C405.109008,60.6423954 415.260826,51.7249958 426.08843,43.9162343 C426.358099,42.729251 428.266198,43.1757113 428.278017,41.7268619 C432.269339,41.3909435 435.407603,41.9007238 438.137603,42.8226213" id="Fill-5"></path>
                <path d="M193.816033,106.300469 C191.763967,103.540142 188.95124,103.078657 189.434711,97.5440523 C190.034215,90.6883117 234.83157,67.411205 244.216281,61.4279937 C249.280909,58.1975962 255.013802,66.263931 255.170661,66.9003515 C257.662149,76.9328285 234.351322,85.9457448 227.781488,89.8844686 C215.158595,97.4474623 207.961322,103.52941 193.816033,106.300469" id="Fill-6"></path>
                <path d="M352.680331,93.1653075 C353.939504,96.2325753 353.939504,98.8555293 352.680331,101.921724 C328.83876,106.418523 302.008264,99.5241464 278.180661,95.3568264 C275.799835,93.2393598 274.98438,81.3180126 283.658926,82.2205921 C299.01719,83.8261318 341.847355,87.3108828 352.680331,93.1653075" id="Fill-7"></path>
                <path d="M360.351405,283.596703 C359.243719,275.239525 353.576364,261.751274 347.202066,257.326381 C318.74281,237.597345 297.816033,298.901918 343.916612,286.878615 C356.854298,306.543257 340.862149,331.584741 331.864215,345.980937 C347.064545,333.364142 364.023636,311.310508 360.351405,283.596703 M169.713388,244.196586 C152.447025,231.215969 130.265372,250.70031 141.229421,272.653061 C150.346612,272.770042 151.345785,265.663167 160.948595,268.271096 C185.433719,274.929364 155.450992,327.726508 147.801405,333.935096 C179.147521,331.338973 193.481901,262.072167 169.713388,244.196586 M349.394876,212.459272 C342.734793,218.390969 332.564711,224.974111 319.811818,224.494381 C300.916694,223.798933 292.001488,207.019111 279.273306,199.324111 C222.755537,165.161316 134.280331,175.757234 88.6395868,215.740111 C70.9907438,231.20631 54.9319835,253.211649 60.1523967,286.878615 C62.3677686,222.31896 149.098182,191.24919 190.531653,231.066791 C207.997851,247.84554 214.891074,276.221523 236.547355,284.687096 C272.885041,298.907285 283.05405,258.39531 303.377025,246.381665 C317.570661,238.003023 344.90719,234.70072 360.351405,243.100826 C366.056364,246.211023 369.496529,254.621862 377.877769,258.427506 C388.906281,263.423354 401.013471,260.745665 412.939091,257.326381 C402.135124,242.444015 376.144793,233.482613 375.689256,210.267753 C375.550661,203.193075 379.08,200.06678 378.975785,191.660234 C361.180826,184.018895 358.636694,204.229808 349.394876,212.459272 M385.546694,199.324111 C380.621736,226.74922 409.039091,251.993542 434.85,248.573184 C451.503967,246.370933 458.878512,231.696772 468.815455,220.122075 C459.020331,225.11363 450.169587,234.60413 437.043884,236.538075 C415.746446,239.669736 394.377025,226.480914 395.409504,204.796469 C395.949917,193.435343 405.32281,184.664975 411.844298,179.626199 C416.532893,176.003002 424.586446,173.732065 422.799752,170.873002 C406.175868,176.232672 388.510909,182.843718 385.546694,199.324111 M518.112314,245.296638 C520.450165,257.145006 519.275868,264.529845 516.165537,276.260159 C513.019752,288.102088 508.73405,299.746544 501.682893,309.861659 C417.870496,430.126889 102.74405,432.289431 17.4242975,309.861659 C0.218099174,285.1679 -4.51884298,253.435952 6.36247934,225.572969 C11.1671074,213.271701 18.468595,202.081218 27.2097521,192.216163 C45.1529752,171.974128 68.7033884,157.138983 93.0209091,145.698439 C180.731157,104.433063 306.700083,99.6840565 403.079504,135.849483 C409.495702,135.849483 419.592727,142.416527 425.426612,145.075971 C432.860248,148.466278 440.164959,152.148502 447.253719,156.214939 C460.774793,163.968967 473.584628,173.133207 484.609917,184.189538 C495.370909,194.985075 504.295785,207.553575 510.462727,221.506531 C513.693388,228.821611 516.284793,236.528416 517.918926,244.361862 C517.986612,244.672023 518.051074,244.98755 518.112314,245.296638" id="Fill-8"></path>
                <path d="M415.132975,419.304521 C411.018099,409.894513 427.155289,399.528264 439.234545,389.758726 C452.567603,378.963188 456.930661,372.722404 467.718512,367.869295 C472.591901,365.678849 477.41157,373.330921 477.581322,374.432046 C478.85876,382.790297 453.814959,398.98736 449.094132,402.887448 C437.720744,412.28887 427.713967,425.038745 415.132975,419.304521" id="Fill-9"></path>
                <path d="M128.080083,412.737477 C115.923471,415.098565 106.512975,406.048086 96.3085124,402.887448 C85.3369421,419.342084 72.3981818,437.533192 60.1534711,455.423799 C56.6284298,460.575264 53.8586777,470.856728 43.7186777,465.267389 C43.5693388,463.237927 42.9999174,461.611996 41.5280165,460.895084 C51.816281,436.880674 68.3864463,419.139245 80.9717355,397.416163 C73.0191736,392.275431 47.0997521,387.803316 61.2493388,374.432046 C71.6203306,374.282868 81.5089256,380.898207 97.4054545,387.567207 C111.378843,393.429144 136.776116,396.266743 128.080083,412.737477" id="Fill-10"></path>
                <path d="M488.536777,399.602316 C497.05124,410.770262 471.658264,424.974351 462.239174,432.434316 C450.297438,441.909791 438.82843,456.31672 427.181074,447.760996 C428.765785,433.311138 444.889008,426.817073 454.572397,419.304521 C464.284793,411.769431 474.185207,397.822914 488.536777,399.602316" id="Fill-11"></path>
                <path d="M188.338843,434.625835 C188.429091,426.583111 174.304215,423.307638 163.142479,422.590726 C159.531488,430.292165 156.406116,438.482994 153.279669,446.665236 C167.325041,445.672506 188.223884,445.142335 188.338843,434.625835 M191.626446,512.331383 L187.245124,512.331383 C171.889008,496.656979 162.789008,474.742864 147.802479,458.706785 C142.144793,465.83405 138.595041,500.868301 125.889421,499.201588 C114.580496,497.70981 122.369752,483.356542 124.795702,477.31323 C134.617686,452.821236 144.094793,422.5156 155.470331,406.174726 C180.597934,407.02901 206.174628,415.479559 203.678843,437.906674 C201.881405,454.077979 184.446364,456.488435 169.714463,461.98655 C173.859421,474.160105 207.327438,500.916596 191.626446,512.331383" id="Fill-12"></path>
                <path d="M339.532066,425.871565 C343.778017,447.899441 347.56843,470.375925 351.585537,492.628105 C363.585289,488.963052 385.705702,487.887684 384.455124,474.025952 C383.265785,460.875766 358.823636,465.299586 353.776198,457.609952 C346.986116,447.264094 360.805868,446.05672 364.732727,443.379031 C370.5,439.457479 375.729008,433.066444 371.307934,424.777952 C362.114463,420.368084 348.956529,424.023477 339.532066,425.871565 M380.069504,449.952515 C392.804132,456.450872 404.290331,467.62955 398.697107,483.874908 C392.205702,502.722828 359.690661,507.832437 340.630083,507.954785 C332.846198,482.870372 327.568843,446.847684 324.195289,418.209835 C334.510413,408.476787 361.681488,403.930619 375.689256,409.456638 C389.416612,414.869969 392.807355,441.797103 380.069504,449.952515" id="Fill-13"></path>
                <path d="M296.805041,424.777952 C293.904215,432.145619 279.998512,431.01337 274.891983,430.25031 C267.607686,449.968613 263.581983,472.940925 257.362397,493.72923 C264.863719,496.775033 281.16314,495.759766 274.891983,509.044105 C260.449091,514.100052 240.899669,506.97064 225.590826,505.763266 C224.087769,501.173096 222.728678,497.801033 225.590826,493.72923 C230.108595,490.330337 234.053719,493.02949 240.928678,492.628105 C248.270992,474.427337 252.130165,452.746111 257.362397,432.434316 C252.386942,429.38422 240.13686,433.600908 236.547355,429.153477 C236.723554,427.881709 236.303471,427.208799 235.450413,426.961958 C233.455289,411.437805 256.998182,416.018316 274.891983,416.018316 C287.124876,416.018316 298.339256,415.728546 296.805041,424.777952" id="Fill-14"></path>
                <path d="M497.30157,426.961958 C524.78314,431.002638 488.384215,454.941923 480.867851,460.895084 C476.324298,464.487157 445.479917,493.984657 442.522149,476.212105 C441.214628,468.366854 461.643967,455.841282 467.718512,451.042908 C479.544215,441.705879 488.122066,434.182594 497.30157,426.961958" id="Fill-15"></path>
            </g>
            <g id="Frills" transform="translate(326.000000, 322.000000)">
                <text id="98" sketch:type="MSTextLayer" font-family="Courier" font-size="40" font-weight="bold">
                    <tspan x="595" y="350">98</tspan>
                </text>
                <text id="19" sketch:type="MSTextLayer" font-family="Courier" font-size="40" font-weight="bold">
                    <tspan x="0" y="350">19</tspan>
                </text>
                <path d="M304.839629,23.831708 L304.839629,23.831708 C304.839629,23.831708 316.73279,26.196765 316.194024,36.639075 C315.967063,36.562715 315.667984,36.488475 315.362542,36.488475 L310.252746,36.488475 C308.878256,36.488475 307.734968,37.555402 307.734968,38.925651 L307.734968,44.035447 C307.734968,45.405695 308.878256,46.474743 310.252746,46.474743 L315.362542,46.474743 C316.73279,46.474743 317.801839,45.405695 317.801839,44.035447 L317.801839,38.925651 C317.801839,38.69869 317.801839,38.469608 317.725478,38.240527 C318.711802,33.438294 318.484842,25.049236 307.051965,19.256437 C307.051965,19.256437 313.224446,8.735645 321.535023,5.229421 C329.8456,8.735645 336.020201,19.256437 336.020201,19.256437 C324.583083,25.049236 324.354001,33.438294 325.346689,38.240527 C325.270328,38.469608 325.270328,38.69869 325.270328,38.925651 L325.270328,44.035447 C325.270328,45.405695 326.339376,46.474743 327.715988,46.474743 L332.81942,46.474743 C334.189669,46.474743 335.258717,45.405695 335.258717,44.035447 L335.258717,38.925651 C335.258717,37.555402 334.189669,36.488475 332.81942,36.488475 L327.715988,36.488475 C327.404182,36.488475 327.102982,36.562715 326.795419,36.639075 C326.339376,26.196765 338.234658,23.831708 338.234658,23.831708 C341.072727,38.56718 338.697064,54.395033 322.909513,61.036282 L322.909513,57.909741 L324.354001,57.909741 C325.49941,57.909741 326.494218,56.995535 326.494218,55.773765 L326.494218,49.978845 C326.494218,48.759197 325.49941,47.768631 324.354001,47.768631 L318.711802,47.768631 C317.574878,47.768631 316.580069,48.759197 316.580069,49.978845 L316.580069,55.773765 C316.580069,56.995535 317.574878,57.909741 318.711802,57.909741 L320.088414,57.909741 L320.088414,61.006587 C304.366618,54.348368 301.99944,38.543848 304.839629,23.831708 L304.839629,23.831708 L304.839629,23.831708 Z M318.711802,63.246497 L318.711802,63.246497 C318.711802,63.246497 281.738431,73.767289 271.675803,46.780185 C267.554452,27.641253 286.385821,20.323364 303.087578,23.449906 C303.087578,23.449906 293.404632,51.122133 318.945126,62.024728 L318.711802,63.246497 L318.711802,63.246497 L318.711802,63.246497 Z M371.400606,46.780185 L371.400606,46.780185 C361.333735,73.767289 324.354001,63.246497 324.354001,63.246497 L324.12704,62.024728 C349.665414,51.122133 339.98671,23.449906 339.98671,23.449906 C356.682103,20.323364 375.515593,27.641253 371.400606,46.780185 L371.400606,46.780185 L371.400606,46.780185 Z M322.909513,71.132849 L322.909513,64.150097 C329.911355,68.615071 343.416573,66.602121 343.416573,66.602121 C378.716374,64.313424 373.837781,37.631763 373.837781,37.631763 C366.061728,10.029533 337.318331,17.807707 337.318331,17.807707 C334.957517,9.651972 327.561146,5.458503 321.535023,0.501429 C315.441024,5.458503 308.121013,9.651972 305.679596,17.807707 C305.679596,17.807707 277.012559,10.029533 269.238627,37.631763 C269.238627,37.631763 264.360034,64.313424 299.655594,66.602121 C299.655594,66.602121 313.061119,68.598102 320.088414,64.198883 L320.088414,71.132849 L322.909513,71.132849 L322.909513,71.132849 L322.909513,71.132849 Z" id="Fill-304" sketch:type="MSShapeGroup"></path>
                <path d="M416.264429,634.229384 L416.264429,634.229384 C411.231332,636.058711 405.119715,637.029625 398.034739,637.029625 C394.794286,637.029625 391.372856,636.787508 387.993002,636.415773 C383.34876,635.929093 378.721637,634.965517 373.977125,633.740259 C365.517707,631.548979 358.180832,628.628902 351.924923,624.972693 C359.418318,622.786304 366.491066,620.95453 373.018439,619.372211 C378.587128,618.156735 383.627561,617.430385 387.993002,617.185822 L390.147598,617.185822 C401.710514,617.185822 410.28243,618.279017 415.726391,620.34557 C421.160571,622.544187 423.899671,625.219701 423.899671,628.257167 C423.899671,630.328612 421.439372,632.400056 416.264429,634.229384 L416.264429,634.229384 L416.264429,634.229384 Z M421.439372,619.24993 C416.000301,616.33719 407.575123,614.867369 395.860578,614.867369 C393.275553,614.867369 390.570691,614.992096 387.993002,615.111932 C382.399858,615.478776 377.102633,616.087736 371.785844,617.185822 C363.891366,618.64586 355.881944,620.34557 347.848065,622.417014 C343.079096,618.887977 339.943805,615.234213 338.451974,611.343224 C337.916382,610.245138 337.38079,609.76335 336.825633,609.878294 C336.157977,609.878294 336.023468,610.484809 336.280258,611.585341 C337.512854,614.018738 338.730775,616.087736 340.23728,617.789892 C341.734003,619.501829 343.355452,621.326266 345.404886,623.028421 C333.433551,626.07567 321.320369,629.115582 308.943061,632.160385 C296.563306,635.197851 283.515896,636.65789 269.634528,636.65789 C267.186457,636.65789 263.659865,636.542945 258.876223,636.168765 C258.487368,636.168765 257.939548,636.058711 257.518901,636.058711 C252.084721,635.572032 246.371741,634.471501 240.529143,632.7669 C234.816162,631.057408 229.379538,628.379448 224.603232,624.972693 C221.419028,622.673805 218.917153,619.809978 217.073152,616.373875 L214.625081,617.349679 C216.366366,620.856705 218.631015,623.886835 221.482614,626.437622 C226.251583,630.695455 231.54147,633.86254 237.525915,636.168765 C243.380742,638.487217 249.367632,639.959484 255.493923,640.80567 C256.702062,640.918169 257.792811,641.045341 258.876223,641.172514 C263.508237,641.659193 267.450584,641.90131 270.727722,641.90131 C276.567875,641.90131 282.696611,641.41463 289.084584,640.43638 C295.611958,639.460576 302.146668,638.122819 308.943061,636.542945 C315.754127,634.843236 322.552965,633.131298 329.346911,631.179689 C336.157977,629.232972 342.682905,627.408535 348.938814,625.586545 C353.152626,628.628902 357.777304,631.057408 362.8104,632.886736 C367.845942,634.843236 372.876593,636.303274 377.498825,637.394023 C381.177045,638.122819 384.706082,638.854061 387.993002,639.218459 C388.809841,639.345632 389.734287,639.345632 390.685636,639.460576 C394.632875,639.832311 397.62632,639.959484 399.541244,639.959484 C402.527353,639.959484 405.657753,639.700247 409.071845,639.345632 C412.468819,638.854061 415.596773,638.122819 418.710054,637.14946 C421.698608,636.168765 424.290971,634.965517 426.335513,633.375861 C428.384947,631.913377 429.328959,630.093832 429.328959,627.900106 C429.328959,625.092528 426.753715,622.174897 421.439372,619.24993 L421.439372,619.24993 L421.439372,619.24993 Z" id="Fill-305" sketch:type="MSShapeGroup"></path>
                <path d="M192.640319,37.6340623 C187.931597,37.6340623 184.125979,41.4427266 184.125979,46.1451696 C184.125979,50.8476125 187.931597,54.6607682 192.640319,54.6607682 C197.340056,54.6607682 201.15466,50.8476125 201.15466,46.1451696 C201.15466,41.4427266 197.340056,37.6340623 192.640319,37.6340623 L192.640319,37.6340623 Z M220.326528,34.9257785 C214.130604,34.9257785 209.098382,39.9471073 209.098382,46.1451696 C209.098382,52.3432318 214.130604,57.3690519 220.326528,57.3690519 C226.531438,57.3690519 231.554674,52.3432318 231.554674,46.1451696 C231.554674,39.9471073 226.531438,34.9257785 220.326528,34.9257785 L220.326528,34.9257785 Z" id="Fill-472" sketch:type="MSShapeGroup"></path>
                <path d="M449.364174,37.6340623 C454.068403,37.6340623 457.878514,41.4427266 457.878514,46.1451696 C457.878514,50.8476125 454.068403,54.6607682 449.364174,54.6607682 C444.659944,54.6607682 440.849833,50.8476125 440.849833,46.1451696 C440.849833,41.4427266 444.659944,37.6340623 449.364174,37.6340623 L449.364174,37.6340623 Z M421.673472,34.9257785 C427.873889,34.9257785 432.901618,39.9471073 432.901618,46.1451696 C432.901618,52.3432318 427.873889,57.3690519 421.673472,57.3690519 C415.473056,57.3690519 410.449819,52.3432318 410.449819,46.1451696 C410.449819,39.9471073 415.473056,34.9257785 421.673472,34.9257785 L421.673472,34.9257785 Z" id="Fill-473" sketch:type="MSShapeGroup"></path>
            </g>
        </g>
    </g>
</svg>