<?xml version="1.0" encoding="UTF-8" standalone="no"?>
<svg width="220px" height="133px" viewBox="0 0 220 133" version="1.1" xmlns="http://www.w3.org/2000/svg" xmlns:xlink="http://www.w3.org/1999/xlink" xmlns:sketch="http://www.bohemiancoding.com/sketch/ns">
    <!-- Generator: Sketch 3.4 (15588) - http://www.bohemiancoding.com/sketch -->
    <title>p_development</title>
    <desc>Created with Sketch.</desc>
    <defs></defs>
    <g id="Page-1" stroke="none" stroke-width="1" fill="none" fill-rule="evenodd" sketch:type="MSPage">
        <g id="p_development" sketch:type="MSLayerGroup" fill="#1B2564">
            <path d="M0,0 L0,30 L220,30 L220,0 L0,0 L0,0 Z M3,2.15625 L7.34375,2.15625 L3,14.34375 L3,2.15625 L3,2.15625 Z M12.625,2.15625 L22.625,2.15625 L13.375,28.03125 L3.375,28.03125 L12.625,2.15625 L12.625,2.15625 Z M27.6875,2.15625 L37.6875,2.15625 L28.46875,28.03125 L18.46875,28.03125 L27.6875,2.15625 L27.6875,2.15625 Z M42.59375,2.15625 L52.59375,2.15625 L43.375,28.03125 L33.375,28.03125 L42.59375,2.15625 L42.59375,2.15625 Z M57.6875,2.15625 L67.6875,2.15625 L58.46875,28.03125 L48.46875,28.03125 L57.6875,2.15625 L57.6875,2.15625 Z M72.5,2.15625 L82.5,2.15625 L73.28125,28.03125 L63.28125,28.03125 L72.5,2.15625 L72.5,2.15625 Z M87.59375,2.15625 L97.59375,2.15625 L88.375,28.03125 L78.375,28.03125 L87.59375,2.15625 L87.59375,2.15625 Z M102.59375,2.15625 L112.59375,2.15625 L103.34375,28.03125 L93.34375,28.03125 L102.59375,2.15625 L102.59375,2.15625 Z M117.75,2.15625 L127.75,2.15625 L118.53125,28.03125 L108.53125,28.03125 L117.75,2.15625 L117.75,2.15625 Z M132.65625,2.15625 L142.65625,2.15625 L133.4375,28.03125 L123.4375,28.03125 L132.65625,2.15625 L132.65625,2.15625 Z M147.5625,2.15625 L157.5625,2.15625 L148.34375,28.03125 L138.34375,28.03125 L147.5625,2.15625 L147.5625,2.15625 Z M162.5625,2.15625 L172.5625,2.15625 L163.34375,28.03125 L153.34375,28.03125 L162.5625,2.15625 L162.5625,2.15625 Z M177.5625,2.15625 L187.5625,2.15625 L178.34375,28.03125 L168.34375,28.03125 L177.5625,2.15625 L177.5625,2.15625 Z M192.5625,2.15625 L202.5625,2.15625 L193.34375,28.03125 L183.34375,28.03125 L192.5625,2.15625 L192.5625,2.15625 Z M207.71875,2.15625 L217.71875,2.15625 L208.5,28.03125 L198.5,28.03125 L207.71875,2.15625 L207.71875,2.15625 Z M216.5625,15.8125 L216.5625,28 L212.21875,28 L216.5625,15.8125 L216.5625,15.8125 Z" id="rect6422" sketch:type="MSShapeGroup"></path>
            <path d="M26.1882835,27.5768976 L45.0218311,32.7532786 L45.0218311,132.21145 L26.1882835,127.293893 L26.1882835,27.5768976 Z" id="rect6489" sketch:type="MSShapeGroup" transform="translate(35.605057, 79.894174) scale(-1, 1) rotate(-15.000000) translate(-35.605057, -79.894174) "></path>
            <path d="M169.849134,27.7181224 L189.849134,32.6095065 L189.849134,132.067678 L169.849134,126.669546 L169.849134,27.7181224 Z" id="rect6491" sketch:type="MSShapeGroup" transform="translate(179.849134, 79.892900) rotate(-195.000000) translate(-179.849134, -79.892900) "></path>
        </g>
    </g>
</svg>