<?xml version="1.0" encoding="UTF-8" standalone="no"?>
<svg width="215px" height="124px" viewBox="0 0 215 124" version="1.1" xmlns="http://www.w3.org/2000/svg" xmlns:xlink="http://www.w3.org/1999/xlink" xmlns:sketch="http://www.bohemiancoding.com/sketch/ns">
    <!-- Generator: Sketch 3.4 (15588) - http://www.bohemiancoding.com/sketch -->
    <title>p_delivery</title>
    <desc>Created with Sketch.</desc>
    <defs></defs>
    <g id="Page-1" stroke="none" stroke-width="1" fill="none" fill-rule="evenodd" sketch:type="MSPage">
        <g id="p_delivery" sketch:type="MSLayerGroup" fill="#1B2564">
            <path d="M112.80245,0.615605 L98.63637,7.060535 C99.56182,6.755223 100.6067,6.648807 101.76312,6.709574 C104.1794,6.836549 107.0326,7.662536 109.89905,9.134398 C112.76143,10.604176 115.11964,12.447808 116.63112,14.335011 C116.77779,14.518136 116.91561,14.72616 117.0459,14.909311 C117.0682,14.835451 117.0856,14.76033 117.1098,14.685972 C117.85784,12.384881 119.41299,9.831231 121.57658,7.443402 C123.74019,5.055571 126.12415,3.27719 128.34057,2.3066 C129.44878,1.821308 130.51782,1.560705 131.53113,1.540868 C132.54446,1.521028 133.53199,1.760977 134.27501,2.434223 C135.01803,3.107469 135.40758,4.103928 135.48743,5.114294 C135.56733,6.124661 135.38294,7.186214 135.00884,8.336759 C134.69848,9.29149 134.24286,10.292176 133.66881,11.303979 L156.13034,0.615605 L112.80255,0.615605 L112.80245,0.615605 Z M159.73558,0.615605 L159.95893,1.062283 L131.3396,14.685972 C131.08856,14.988815 130.81241,15.280849 130.54196,15.579329 C129.0716,17.202078 127.50251,18.536844 125.94755,19.535622 L167.93532,19.535622 L209.54021,0.615605 L159.73558,0.615605 L159.73558,0.615605 Z M214.90035,2.657563 L170.74301,22.726181 L170.74301,55.174176 L214.90035,35.105552 L214.90035,2.657563 L214.90035,2.657563 Z M131.59485,3.550919 C130.95274,3.563489 130.06863,3.781555 129.13812,4.189031 C127.27711,5.003979 125.07336,6.611031 123.07605,8.815343 C121.07873,11.019654 119.68404,13.391987 119.05595,15.324084 C118.74187,16.290135 118.62244,17.140587 118.67308,17.780815 C118.69138,18.01228 118.71898,18.212358 118.76878,18.38702 L129.99956,13.058786 C131.47308,11.211695 132.54346,9.327196 133.06249,7.730552 C133.37655,6.764501 133.496,5.882144 133.44536,5.241915 C133.39476,4.60169 133.19045,4.194288 132.90297,3.933787 C132.61547,3.673285 132.23692,3.53834 131.59483,3.550919 L131.59485,3.550919 Z M97.71111,7.475308 L71.16565,19.535622 L103.67745,19.535622 C101.1302,18.132331 99.03254,16.450096 97.64729,14.717877 C96.89171,13.77303 96.36536,12.788129 96.08392,11.814468 C95.8025,10.840807 95.78544,9.834915 96.24346,8.942964 C96.56858,8.309767 97.09285,7.831014 97.71111,7.475308 L97.71111,7.475308 Z M100.96547,8.751531 C100.2616,8.766471 99.63275,8.845841 99.17877,9.006777 C98.57344,9.221353 98.23928,9.523102 98.06206,9.868227 C97.88487,10.213353 97.85182,10.623202 98.03016,11.240167 C98.20849,11.857133 98.64005,12.648317 99.27448,13.441653 C100.54332,15.028322 102.65849,16.741129 105.30463,18.09987 C106.50591,18.7167 107.69877,19.176066 108.84616,19.535622 L115.96111,19.535622 C116.0644,19.430655 116.15305,19.307919 116.21634,19.184661 C116.39177,18.839255 116.45998,18.39815 116.28024,17.780815 C116.10042,17.163478 115.6707,16.403795 115.03592,15.611234 C113.76637,14.02611 111.61623,12.309823 108.97386,10.953017 C106.32771,9.594277 103.7282,8.858145 101.69937,8.751531 C101.44578,8.738201 101.20017,8.746631 100.96555,8.751531 L100.96547,8.751531 Z M124.83086,17.780815 L121.67221,19.312283 C122.08182,19.197515 122.51541,19.037708 122.98033,18.833699 C123.57268,18.573783 124.18603,18.195146 124.83086,17.780815 L124.83086,17.780815 Z M67.62414,21.162807 L5.759179,49.271635 L53.936625,49.271635 L110.88812,22.15188 C110.09682,22.021075 109.27519,21.835632 108.43139,21.577581 L67.62414,21.577581 L67.62414,21.162807 L67.62414,21.162807 Z M117.1416,21.577581 C116.4596,22.222875 115.88162,22.840995 115.64204,23.332388 C115.31064,24.012087 115.24673,24.569971 115.323,25.278628 C115.47547,26.695948 116.36094,28.601126 116.72683,31.27688 L114.71678,31.532125 C114.39722,29.195148 113.49256,27.468237 113.28103,25.501968 C113.20173,24.764617 113.23283,23.98191 113.47247,23.204766 L58.722461,49.271635 L102.49694,49.271635 L163.43664,21.577581 L122.50175,21.577581 C123.35815,22.220968 124.09471,22.944223 124.67134,23.74716 C126.16128,25.821858 126.63807,28.374687 126.26662,31.181164 L124.25657,30.925919 C124.5786,28.492611 124.16667,26.535107 123.01224,24.927667 C122.0423,23.577062 120.39227,22.45547 118.09878,21.577581 L117.1416,21.577581 L117.1416,21.577581 Z M168.70106,23.651444 L104.63462,52.781255 L104.63462,85.22924 L168.70106,56.099428 L168.70106,23.651444 L168.70106,23.651444 Z M214.90035,37.338943 L170.74301,57.407563 L170.74301,92.15275 L214.90035,72.08414 L214.90035,37.338943 L214.90035,37.338943 Z M0.845716,51.505028 L0.494755,51.664556 L0.494755,85.89926 L51.288462,85.89926 L51.288462,53.355554 L0.845716,53.355554 L0.845716,51.505028 L0.845716,51.505028 Z M53.33042,53.355554 L53.33042,85.89926 L100.5507,85.89926 L100.5507,53.355554 L53.33042,53.355554 L53.33042,53.355554 Z M168.70106,58.332821 L104.63462,87.46262 L104.63462,122.20782 L168.70106,93.07801 L168.70106,58.332821 L168.70106,58.332821 Z M0.494755,87.94121 L0.494755,123.13308 L51.288462,123.13308 L51.288462,87.94121 L0.494755,87.94121 L0.494755,87.94121 Z M53.33042,87.94121 L53.33042,123.13308 L100.5507,123.13308 L100.5507,87.94121 L53.33042,87.94121 L53.33042,87.94121 Z" id="path3063" sketch:type="MSShapeGroup"></path>
        </g>
    </g>
</svg>