<?xml version="1.0" encoding="UTF-8" standalone="no"?>
<svg width="259px" height="144px" viewBox="0 0 259 144" version="1.1" xmlns="http://www.w3.org/2000/svg" xmlns:xlink="http://www.w3.org/1999/xlink" xmlns:sketch="http://www.bohemiancoding.com/sketch/ns">
    <!-- Generator: Sketch 3.4 (15588) - http://www.bohemiancoding.com/sketch -->
    <title>p_discovery</title>
    <desc>Created with Sketch.</desc>
    <defs></defs>
    <g id="Page-1" stroke="none" stroke-width="1" fill="none" fill-rule="evenodd" sketch:type="MSPage">
        <g id="p_discovery" sketch:type="MSLayerGroup" fill="#1B2564">
            <path d="M186.05336,47.655744 C182.17204,47.828197 179.07713,49.713937 178.63157,52.473922 C178.08319,55.870827 181.76602,59.312548 186.86138,60.135123 C191.95674,60.957698 196.51796,58.863483 197.06634,55.466578 C197.60373,52.072851 193.92466,48.656711 188.83653,47.835304 C187.88115,47.681071 186.94905,47.615947 186.05336,47.655744 L186.05336,47.655744 Z M178.45201,53.850544 C160.0694,54.136327 143.24392,64.367855 133.71179,80.245776 C112.50137,82.305927 97.82987,88.855335 96.24373,98.68054 C93.619987,114.93308 127.74232,133.96098 172.43677,141.17627 C217.13123,148.39157 255.49278,141.05896 258.11653,124.80643 L258.11653,124.74653 C259.59241,115.27235 248.60771,104.86389 230.34468,96.40607 C226.4917,78.317642 213.9731,63.209777 196.797,56.93298 C196.789,57.074428 196.789,57.210386 196.7671,57.351952 C196.2187,60.748854 191.62757,62.872995 186.53222,62.050423 C181.43687,61.227849 177.78395,57.786125 178.33234,54.389222 C178.36134,54.207123 178.40004,54.024819 178.45204,53.850544 L178.45201,53.850544 Z M175.3995,59.11762 L175.96811,59.89571 C163.16411,69.07828 156.14824,78.452951 152.32612,85.512852 C148.50399,92.572753 147.86706,97.27399 147.86706,97.27399 L146.93934,97.15429 C146.93934,97.15429 147.60111,92.213881 151.48818,85.034027 C155.37524,77.854172 162.47949,68.383391 175.3995,59.11762 L175.3995,59.11762 Z M193.83427,64.235063 C199.08685,71.077777 201.0411,81.845239 201.73488,90.899634 C202.42861,99.95403 201.82468,107.32932 201.82468,107.32932 L200.86703,107.23952 C200.86703,107.23952 201.46482,99.93267 200.77723,90.959467 C200.08967,81.986266 198.08117,71.379805 193.05618,64.833574 L193.83427,64.235043 L193.83427,64.235063 Z M130.86877,94.460895 C144.21012,101.07285 160.24547,106.25242 177.85348,109.09499 C195.42303,111.93136 212.24166,112.0564 226.96298,109.99278 C226.69852,110.86612 226.45826,111.7146 226.15496,112.56647 C211.60821,114.7058 194.86718,114.63741 177.40458,111.8183 C159.90817,108.99375 144.01807,103.78081 130.86877,97.15429 C130.84927,96.25153 130.84217,95.37139 130.86877,94.460895 L130.86877,94.460895 Z M128.77391,99.81775 C142.44501,106.59313 158.88259,111.89814 176.92576,114.81096 C194.92956,117.71742 212.17711,117.8533 227.26224,115.73868 C226.99126,116.63361 226.7351,117.52923 226.4243,118.40215 C211.51803,120.59436 194.37104,120.48289 176.47686,117.59413 C158.54803,114.69977 142.24821,109.39123 128.77391,102.60092 C128.75381,101.67585 128.74671,100.75074 128.77391,99.81775 L128.77391,99.81775 Z M126.70898,105.17461 C140.7098,112.11339 157.51966,117.54386 175.99803,120.52694 C194.43606,123.50348 212.11252,123.65021 227.56151,121.48459 C227.28398,122.4011 227.01192,123.31393 226.69364,124.2079 C211.42783,126.45297 193.84497,126.35833 175.51921,123.39989 C157.15794,120.43572 140.47833,114.97172 126.67905,108.01763 C126.65835,107.07024 126.68105,106.13012 126.70895,105.17461 L126.70898,105.17461 Z" id="path6509" sketch:type="MSShapeGroup"></path>
            <path d="M64.53125,0.09375 L59.375,41.53125 C55.6866867,42.2988272 52.2382062,43.9052622 49.3125,46.21875 L35.5625,35.53125 L46.1875,49.21875 C43.6152517,52.1437036 41.8325128,55.644745 41,59.40625 L0.09375,64.53125 L41.15625,69.6875 C42.0703828,73.3359328 43.8827489,76.7140116 46.4375,79.53125 L35.5625,93.53125 L49.71875,82.53125 C52.5354752,84.6436494 55.8027231,86.1171141 59.28125,86.84375 L64.53125,128.96875 L69.8125,86.75 C73.2139674,85.9523307 76.3932479,84.4373715 79.125,82.3125 L93.53125,93.53125 L82.40625,79.25 C84.8372069,76.5011246 86.5711024,73.2366918 87.46875,69.71875 L128.96875,64.53125 L87.625,59.34375 C86.83053,55.7071811 85.1478092,52.3095857 82.71875,49.4375 L93.53125,35.53125 L79.5625,46.375 C76.7032304,44.0800289 73.3327952,42.46436 69.71875,41.65625 L64.53125,0.09375 L64.53125,0.09375 Z M64.0625,60.0625 C65.1832399,60.0479486 66.2632078,60.4824402 67.0616061,61.2690975 C67.8600045,62.0557547 68.3104471,63.1291675 68.3125,64.25 C68.3167328,66.5610397 66.4512567,68.4403344 64.1402488,68.4531576 C61.8292408,68.4659808 59.9430248,66.6075033 59.9216113,64.296559 C59.9001979,61.9856146 61.7516512,60.0925034 64.0625,60.0625 L64.0625,60.0625 Z" id="path6555" sketch:type="MSShapeGroup"></path>
        </g>
    </g>
</svg>