<?xml version="1.0" encoding="UTF-8" standalone="no"?>
<svg width="161px" height="161px" viewBox="0 0 161 161" version="1.1" xmlns="http://www.w3.org/2000/svg" xmlns:xlink="http://www.w3.org/1999/xlink" xmlns:sketch="http://www.bohemiancoding.com/sketch/ns">
    <!-- Generator: Sketch 3.4 (15588) - http://www.bohemiancoding.com/sketch -->
    <title>p_launch</title>
    <desc>Created with Sketch.</desc>
    <defs></defs>
    <g id="Page-1" stroke="none" stroke-width="1" fill="none" fill-rule="evenodd" sketch:type="MSPage">
        <g id="p_launch" sketch:type="MSLayerGroup" fill="#1B2564">
            <path d="M134.91376,27.912251 C129.74036,22.738868 121.36889,22.738865 116.19549,27.912251 C111.84415,32.263604 111.16883,38.886448 114.13731,43.96044 C108.78215,42.908923 102.93267,45.292761 96.82363,48.619152 C98.29024,51.625298 100.2191,54.455287 102.60878,57.018729 L106.58605,54.209586 L108.63032,56.253861 L105.89072,60.133787 C108.56623,62.348708 111.50363,64.090435 114.58233,65.376583 C117.72368,59.500744 119.89401,53.869326 118.87946,48.702592 C123.95346,51.671097 130.57631,50.995764 134.92766,46.644412 L134.95556,46.616552 C140.11123,41.440127 140.07989,33.078242 134.91376,27.912192 L134.91376,27.912251 Z M110.00707,49.453552 L113.42808,52.874566 L109.32565,55.614162 L107.28139,53.569901 L110.00707,49.453552 L110.00707,49.453552 Z" id="path2989" sketch:type="MSShapeGroup"></path>
            <path d="M151.99103,8.88805 C135.30743,-7.7955475 100.81482,2.2128914 81.90187,34.476149 C70.83517,53.35465 56.45468,86.298161 51.86367,95.665104 L67.43902,111.24047 C76.65786,106.45198 108.21019,90.730576 128.62797,81.202256 L128.72537,81.104986 C160.89717,62.283602 168.68328,25.580304 151.99108,8.888113 L151.99103,8.88805 Z M140.76841,22.141017 C151.44768,32.820285 151.48184,50.128464 140.82391,60.829122 L140.78211,60.870802 C130.08769,71.565229 112.74673,71.551323 102.05229,60.856862 C91.35787,50.162447 91.35787,32.835374 102.05229,22.140947 C112.74673,11.446519 130.07379,11.446519 140.76821,22.14094 L140.76841,22.141017 Z" id="path5200" sketch:type="MSShapeGroup"></path>
            <path d="M49.63862,97.890168 L42.963447,113.46552 L49.63862,120.14068 L65.21397,113.46553 L49.63862,97.890168 Z" id="path5206" sketch:type="MSShapeGroup"></path>
            <path d="M49.63862,93.440059 L58.5388,71.189533 C44.382603,62.48771 17.638668,73.698528 0.687441,80.08974 C18.487872,88.989943 38.874551,80.268161 49.63862,93.440059 L49.63862,93.440059 Z" id="path5716" sketch:type="MSShapeGroup"></path>
            <path d="M69.17439,112.97585 L91.42492,104.07564 C100.12673,118.23184 87.18055,143.24042 80.78935,160.19164 C71.88913,142.39121 82.3463,123.73989 69.17439,112.97585 L69.17439,112.97585 Z" id="path5718" sketch:type="MSShapeGroup"></path>
        </g>
    </g>
</svg>