<?xml version="1.0" encoding="UTF-8" standalone="no"?>
<svg width="236px" height="140px" viewBox="0 0 236 140" version="1.1" xmlns="http://www.w3.org/2000/svg" xmlns:xlink="http://www.w3.org/1999/xlink" xmlns:sketch="http://www.bohemiancoding.com/sketch/ns">
    <!-- Generator: Sketch 3.4 (15588) - http://www.bohemiancoding.com/sketch -->
    <title>p_measurement</title>
    <desc>Created with Sketch.</desc>
    <defs></defs>
    <g id="Page-1" stroke="none" stroke-width="1" fill="none" fill-rule="evenodd" sketch:type="MSPage">
        <g id="p_measurement" sketch:type="MSLayerGroup" transform="translate(2.000000, 0.000000)">
            <path d="M228.33344,11.680286 C219.47189,-3.668366 192.49932,-3.112458 172.5042,16.619786 C160.80427,28.165905 143.9655,49.272896 138.81333,55.176695 L147.08622,69.505786 C154.70608,67.823696 180.65596,62.550999 197.32292,59.607082 L197.41252,59.555452 C224.41454,52.15394 237.1996,27.03691 228.33348,11.680352 L228.33344,11.680286 Z M217.61407,19.114374 C223.28641,28.939137 219.94621,41.504054 210.13278,47.196052 L210.09438,47.218172 C200.25568,52.898556 187.67632,49.517112 181.99594,39.678379 C176.31555,29.839681 179.68421,17.267694 189.52291,11.587315 C199.36162,5.90693 211.9336,9.275586 217.61398,19.114289 L217.61407,19.114374 Z" id="path5200" fill="#1B2564" sketch:type="MSShapeGroup"></path>
            <path d="M136.76631,56.358548 L128.89492,66.361782 L132.44046,72.502828 L145.03921,70.687639 L136.76631,56.358548 Z" id="path5206" fill="#1B2564" sketch:type="MSShapeGroup"></path>
            <path d="M137.63148,53.129688 L148.41502,38.715727 C139.8355,29.649774 118.25138,32.584561 104.70954,33.92624 C115.89464,43.844634 132.38222,41.479859 137.63148,53.129688 L137.63148,53.129688 Z" id="path5716" fill="#1B2564" sketch:type="MSShapeGroup"></path>
            <path d="M148.00796,71.102308 L165.8826,68.970445 C169.44417,80.93351 155.18878,96.56202 147.25593,107.61875 C144.25889,92.97297 155.4724,81.47318 148.00796,71.102308 L148.00796,71.102308 Z" id="path5718" fill="#1B2564" sketch:type="MSShapeGroup"></path>
            <path d="M125,73 L0,138" id="path5758" stroke="#1B2564" stroke-width="3.79999995" stroke-dasharray="3.79999995,3.79999995" sketch:type="MSShapeGroup"></path>
            <path d="M203.64865,36.098455 C203.648606,42.9995659 198.05595,48.5949561 191.15484,48.5983736 C184.25373,48.6017911 178.655535,43.0119427 178.648656,36.1108352 C178.641777,29.2097278 184.228817,23.6087298 191.12992,23.5983891 C198.031023,23.5880485 203.634823,29.1722779 203.648625,36.073375" id="path5760" fill="#1B2564" sketch:type="MSShapeGroup"></path>
            <path d="M80,86 L30,41" id="path5762" stroke="#1B2564" stroke-width="2" fill="#CCCCCC" sketch:type="MSShapeGroup"></path>
            <path d="M5,26 L60,26" id="path5766" stroke="#1B2564" stroke-width="2" sketch:type="MSShapeGroup"></path>
            <path d="M5,31 L50,31" id="path5768" stroke="#1B2564" stroke-width="2" sketch:type="MSShapeGroup"></path>
            <path d="M5,36 L35,36" id="path5770" stroke="#1B2564" stroke-width="2" sketch:type="MSShapeGroup"></path>
            <path d="M204.90658,108.51557 L188.64856,65.844292" id="path5772" stroke="#1B2564" stroke-width="2" fill="#CCCCCC" sketch:type="MSShapeGroup"></path>
            <path d="M177.13545,114.72962 L232.13545,114.72962" id="path5774" stroke="#1B2564" stroke-width="2" sketch:type="MSShapeGroup"></path>
            <path d="M177.13545,119.72962 L222.13545,119.72962" id="path5776" stroke="#1B2564" stroke-width="2" sketch:type="MSShapeGroup"></path>
            <path d="M177.13545,124.72962 L207.13545,124.72962" id="path5778" stroke="#1B2564" stroke-width="2" sketch:type="MSShapeGroup"></path>
        </g>
    </g>
</svg>