<?xml version="1.0" encoding="UTF-8" standalone="no"?>
<svg width="255px" height="125px" viewBox="0 0 255 125" version="1.1" xmlns="http://www.w3.org/2000/svg" xmlns:xlink="http://www.w3.org/1999/xlink" xmlns:sketch="http://www.bohemiancoding.com/sketch/ns">
    <!-- Generator: Sketch 3.4 (15588) - http://www.bohemiancoding.com/sketch -->
    <title>p_personas</title>
    <desc>Created with Sketch.</desc>
    <defs></defs>
    <g id="Page-1" stroke="none" stroke-width="1" fill="none" fill-rule="evenodd" sketch:type="MSPage">
        <g id="p_personas" sketch:type="MSLayerGroup" fill="#1B2564">
            <path d="M37.674415,0.837922 C23.91681,0.837922 12.764059,11.990662 12.764059,25.748278 C12.764059,37.319835 20.675238,47.002753 31.368981,49.80234 C12.757108,62.304701 12.748278,99.61568 0.308879,124.49449 L75.039949,124.49449 C62.600552,99.61568 62.59172,62.304701 43.979849,49.80234 C54.67359,47.002753 62.584771,37.319835 62.584771,25.748278 L62.584771,25.670438 C62.557245,11.932358 51.412513,0.837922 37.674415,0.837922 L37.674415,0.837922 Z M33.198334,62.607816 L42.306183,62.607816 L40.476829,71.71567 L35.027689,71.71567 L33.198334,62.607816 L33.198334,62.607816 Z M34.949844,73.46718 L40.398984,73.46718 L44.018771,94.32959 L37.674415,98.88354 L31.330059,94.32959 L34.949844,73.46718 L34.949844,73.46718 Z" id="path2989" sketch:type="MSShapeGroup"></path>
            <path d="M127.62416,0.837922 C126.01316,0.837922 124.44038,0.973932 122.91454,1.266068 C131.08825,12.203272 130.10715,28.647743 149.77102,37.113628 C151.52954,33.709777 152.53451,29.848635 152.53451,25.748278 L152.53451,25.670438 C152.50704,11.93236 141.36225,0.837924 127.62416,0.837924 L127.62416,0.837922 Z M116.25882,3.601413 C108.22572,7.735424 102.71381,16.091916 102.71381,25.748278 C102.71381,37.326898 110.61503,47.009516 121.31872,49.80234 C102.70686,62.304701 102.69803,99.61568 90.25862,124.49449 L164.9897,124.49449 C152.55051,99.61611 152.54054,62.305334 133.9296,49.80234 C139.34119,48.385602 144.03604,45.222982 147.35784,40.928025 C124.86068,30.886039 130.85339,18.195993 116.25882,3.601413 L116.25882,3.601413 Z M127.97446,55.796393 C129.69172,55.796393 131.08482,57.192937 131.08825,58.910189 C131.08825,60.629885 129.69417,62.023981 127.97446,62.023981 C126.25476,62.023981 124.86068,60.629885 124.86068,58.910189 C124.86068,57.190493 126.25476,55.796393 127.97446,55.796393 L127.97446,55.796393 Z M127.97446,73.23364 C129.69172,73.23364 131.08482,74.63018 131.08825,76.34743 C131.08825,78.06713 129.69417,79.46124 127.97446,79.46124 C126.25476,79.46124 124.86068,78.06713 124.86068,76.34743 C124.86068,74.62775 126.25476,73.23364 127.97446,73.23364 L127.97446,73.23364 Z M127.97446,90.6709 C129.69172,90.6709 131.08482,92.06743 131.08825,93.78469 C131.08825,95.50439 129.69417,96.89848 127.97446,96.89848 C126.25476,96.89848 124.86068,95.50439 124.86068,93.78469 C124.86068,92.06499 126.25476,90.6709 127.97446,90.6709 L127.97446,90.6709 Z" id="path3765" sketch:type="MSShapeGroup"></path>
            <path d="M217.5739,0.837922 C203.81629,0.837922 192.66354,11.990662 192.66354,25.748278 C192.66354,37.319823 200.57473,47.002753 211.26847,49.80234 C192.65752,62.305334 192.64756,99.61611 180.20836,124.49449 L254.93943,124.49449 C242.50003,99.61568 242.49121,62.304701 223.87934,49.80234 C234.58303,47.009516 242.48425,37.326898 242.48425,25.748278 L242.48425,25.670438 C242.45678,11.93236 231.312,0.837924 217.5739,0.837924 L217.5739,0.837922 Z M206.16962,63.23059 L213.87627,65.79945 C213.116,67.69405 213.60511,68.58334 213.87627,69.65279 L206.16962,72.22165 L206.16962,63.23059 L206.16962,63.23059 Z M230.45722,63.23059 L230.45722,72.22165 L222.75059,69.65279 C223.51084,67.75819 223.02175,66.8689 222.75059,65.79945 L230.45722,63.23059 L230.45722,63.23059 Z M218.23559,64.51502 C220.00917,64.51502 221.4626,65.97201 221.46614,67.74559 C221.46614,69.52167 220.01167,70.93722 218.23559,70.93722 C216.45949,70.93722 215.00502,69.52167 215.00502,67.74559 C215.00502,65.96949 216.45949,64.51502 218.23559,64.51502 L218.23559,64.51502 Z" id="path3769" sketch:type="MSShapeGroup"></path>
        </g>
    </g>
</svg>