<?xml version="1.0" encoding="UTF-8" standalone="no"?>
<svg width="205px" height="132px" viewBox="0 0 205 132" version="1.1" xmlns="http://www.w3.org/2000/svg" xmlns:xlink="http://www.w3.org/1999/xlink" xmlns:sketch="http://www.bohemiancoding.com/sketch/ns">
    <!-- Generator: Sketch 3.4 (15588) - http://www.bohemiancoding.com/sketch -->
    <title>p_prioritisation</title>
    <desc>Created with Sketch.</desc>
    <defs></defs>
    <g id="Page-1" stroke="none" stroke-width="1" fill="none" fill-rule="evenodd" sketch:type="MSPage">
        <g id="p_prioritisation" sketch:type="MSLayerGroup" fill="#1B2564">
            <path d="M8.48225,0.583339 C4.458371,0.583339 1.163909,3.877803 1.163909,7.90168 C1.163909,11.925556 4.458371,15.126195 8.48225,15.126195 C12.506128,15.126195 15.800591,11.925556 15.800591,7.90168 L15.800591,7.80785 C15.792591,3.789691 12.500419,0.583339 8.48225,0.583339 L8.48225,0.583339 Z" id="path4032" sketch:type="MSShapeGroup"></path>
            <path d="M29.968149,3.86721 L29.968149,12.592924 L204.85775,12.592924 L204.85775,3.86721 L29.968149,3.86721 L29.968149,3.86721 Z" id="path4030" sketch:type="MSShapeGroup"></path>
            <path d="M8.10695,29.856702 C4.083073,29.856702 0.788609,33.151166 0.788609,37.175045 C0.788609,41.198916 4.083073,44.493381 8.10695,44.493381 C12.130828,44.493381 15.425291,41.198916 15.425291,37.175045 C15.417291,33.156879 12.125121,29.856702 8.10695,29.856702 L8.10695,29.856702 Z" id="path4028" sketch:type="MSShapeGroup"></path>
            <path d="M29.968149,32.952925 L29.968149,41.772459 L204.85775,41.772459 L204.85775,32.952925 L29.968149,32.952925 L29.968149,32.952925 Z" id="path4026" sketch:type="MSShapeGroup"></path>
            <path d="M8.48225,58.84859 C4.458371,58.84859 1.163909,62.143056 1.163909,66.166935 C1.163909,70.190814 4.458371,73.391453 8.48225,73.391453 C12.506128,73.391453 15.800591,70.190814 15.800591,66.166935 L15.800591,66.073125 C15.792591,62.054971 12.500419,58.848607 8.48225,58.848607 L8.48225,58.84859 Z" id="path4024" sketch:type="MSShapeGroup"></path>
            <path d="M29.968149,62.132456 L29.968149,70.858183 L204.85775,70.858183 L204.85775,62.132473 L29.968149,62.132473 L29.968149,62.132456 Z" id="path4022" sketch:type="MSShapeGroup"></path>
            <path d="M8.48225,88.12195 C4.458371,88.12195 1.163909,91.41643 1.163909,95.4403 C1.163909,99.46416 4.458371,102.75864 8.48225,102.75864 C12.506128,102.75864 15.800591,99.46416 15.800591,95.4403 C15.792591,91.42213 12.500419,88.12195 8.48225,88.12195 L8.48225,88.12195 Z" id="path4020" sketch:type="MSShapeGroup"></path>
            <path d="M29.968149,91.96878 L29.968149,100.69449 L204.85775,100.69449 L204.85775,91.96878 L29.968149,91.96878 L29.968149,91.96878 Z" id="path4018" sketch:type="MSShapeGroup"></path>
            <path d="M8.48225,117.30149 C4.458371,117.30149 1.163909,120.59597 1.163909,124.61983 C1.163909,128.64369 4.458371,131.84435 8.48225,131.84435 C12.506128,131.84435 15.800591,128.64369 15.800591,124.61983 C15.792591,120.60166 12.500419,117.30149 8.48225,117.30149 L8.48225,117.30149 Z" id="path4016" sketch:type="MSShapeGroup"></path>
            <path d="M29.968149,121.14831 L29.968149,129.87402 L204.85775,129.87402 L204.85775,121.14831 L29.968149,121.14831 L29.968149,121.14831 Z" id="path3903" sketch:type="MSShapeGroup"></path>
        </g>
    </g>
</svg>