<?xml version="1.0" encoding="UTF-8" standalone="no"?>
<svg width="201px" height="144px" viewBox="0 0 201 144" version="1.1" xmlns="http://www.w3.org/2000/svg" xmlns:xlink="http://www.w3.org/1999/xlink" xmlns:sketch="http://www.bohemiancoding.com/sketch/ns">
    <!-- Generator: Sketch 3.4 (15588) - http://www.bohemiancoding.com/sketch -->
    <title>p_prototyping</title>
    <desc>Created with Sketch.</desc>
    <defs></defs>
    <g id="Page-1" stroke="none" stroke-width="1" fill="none" fill-rule="evenodd" sketch:type="MSPage">
        <g id="p_prototyping" sketch:type="MSLayerGroup" fill="#1B2564">
            <path d="M53.950641,59.487046 L52.163381,61.274305 C55.471761,64.58268 58.833671,66.174654 62.07454,66.351745 C65.20528,66.522818 68.11527,65.347007 70.68588,63.467759 C73.4327,62.57567 76.21232,63.469959 79.33784,64.483247 C82.48261,65.502787 86.00536,66.612576 89.69582,65.173779 C89.70882,65.168979 89.72382,65.178479 89.73642,65.173779 C93.0746,63.932116 96.53922,64.884758 100.33811,65.90493 C104.15142,66.928975 108.32097,67.999135 112.56459,66.026789 L111.50848,63.711476 C108.15717,65.269098 104.76882,64.483072 100.98802,63.467759 C97.20722,62.452446 93.06931,61.208817 88.80217,62.817847 C86.02236,63.914743 83.24406,63.102896 80.10959,62.086695 C76.97511,61.070495 73.50383,59.818331 69.79223,61.071207 L69.58913,61.152447 L69.42665,61.274306 C67.11896,63.022758 64.71133,63.970761 62.19638,63.833336 C59.681431,63.69591 56.950781,62.487209 53.950611,59.487047 L53.950641,59.487046 Z M53.950641,46.082602 L52.163381,47.869861 C55.471761,51.178238 58.833671,52.810831 62.07454,52.987922 C65.17532,53.157358 68.05209,51.951508 70.60464,50.103935 C73.37726,49.168017 76.18208,50.055695 79.33784,51.078804 C82.48261,52.098344 86.00536,53.208134 89.69582,51.769336 C89.70882,51.764536 89.72382,51.774036 89.73642,51.769336 C93.0746,50.527672 96.53922,51.480315 100.33811,52.500487 C104.07756,53.504697 108.16158,54.523434 112.32087,52.703585 C115.57823,51.930865 119.12842,52.480305 122.84133,52.866063 C126.50391,53.246592 130.39443,53.426759 134.13356,51.606858 C134.14526,51.601158 134.16246,51.612558 134.17406,51.606858 C136.9088,50.701648 139.67805,51.749716 142.82602,52.825443 C145.98933,53.90641 149.60054,54.952517 153.30586,53.028541 L153.34636,53.028541 L153.38696,52.987921 C155.89874,51.486238 158.46559,51.268468 161.26714,51.36314 C164.0687,51.45781 167.05451,51.937518 170.16282,51.728715 L170.24402,51.688095 L170.36581,51.688095 C172.91741,51.082075 175.44165,50.006197 177.79919,49.49464 C180.15672,48.983084 182.21726,48.984515 184.25769,50.266411 L184.29819,50.266411 L184.29819,50.307031 C186.76192,51.685711 190.11524,51.607616 192.95015,51.809953 C194.36761,51.911119 195.6555,52.074015 196.52467,52.338007 C197.39384,52.601999 197.64418,52.881338 197.74326,53.191017 L198.02759,53.109777 L198.79936,54.368982 L199.61176,53.840929 L200.46477,53.353494 L200.18043,52.419245 C199.74522,51.058942 198.50393,50.279923 197.25582,49.900835 C196.00772,49.521746 194.57873,49.396182 193.11263,49.291542 C190.19788,49.083506 187.07753,48.922765 185.59802,48.113576 C185.58632,48.106076 185.56932,48.120976 185.55742,48.113576 C182.83805,46.421643 179.89809,46.478616 177.23042,47.057468 C174.56453,47.635934 172.0811,48.672808 169.83767,49.210303 C169.82467,49.211051 169.80987,49.209581 169.79707,49.210303 C167.12488,49.360769 164.29095,48.903551 161.34821,48.804108 C158.3624,48.703215 155.20702,49.006827 152.1682,50.794464 C152.1402,50.810934 152.1149,50.818354 152.087,50.835084 C149.3369,52.219694 146.703,51.476215 143.63814,50.428889 C140.5414,49.370669 137.06993,47.983861 133.32078,49.250922 L133.23958,49.250922 L133.15838,49.291542 C130.06395,50.845511 126.74058,50.723259 123.12536,50.347649 C119.51014,49.97204 115.64938,49.341836 111.75189,50.266409 L111.6301,50.266409 L111.50831,50.347649 C108.15699,51.905271 104.76865,51.078625 100.98785,50.063313 C97.20705,49.048 93.06913,47.804369 88.80199,49.4134 C86.02219,50.510297 83.24389,49.698449 80.10941,48.682249 C76.97494,47.666049 73.50365,46.454505 69.79205,47.70738 L69.58896,47.748 L69.42648,47.910478 C67.11885,49.658932 64.71122,50.606932 62.19627,50.469508 C59.681321,50.332084 56.950671,49.082761 53.950501,46.082599 L53.950641,46.082602 Z M53.950641,31.459574 L52.163381,33.246833 C55.471761,36.555208 58.833671,38.147182 62.07454,38.324273 C65.17532,38.493709 68.05209,37.328477 70.60464,35.480906 C73.37726,34.544987 76.18208,35.432666 79.33784,36.455775 C82.48261,37.475315 86.00536,38.585106 89.69582,37.146307 C89.70882,37.141507 89.72382,37.151007 89.73642,37.146307 C93.0746,35.904644 96.53922,36.857286 100.33811,37.877458 C104.07733,38.881604 108.16185,39.89993 112.32087,38.080556 C115.57823,37.307837 119.12842,37.857276 122.84133,38.243034 C126.49987,38.623143 130.39825,38.797269 134.13356,36.983829 C136.88123,36.055228 139.66283,37.080819 142.82613,38.161795 C145.98944,39.242762 149.60065,40.329488 153.30597,38.405512 L153.34657,38.405512 L153.38707,38.364892 C155.89885,36.863208 158.46571,36.60482 161.26726,36.699491 C164.06881,36.794161 167.05462,37.273869 170.16293,37.065067 L170.24413,37.065067 L170.36593,37.065067 C172.91752,36.459048 175.44177,35.383169 177.7993,34.871613 C180.15683,34.360056 182.21738,34.361489 184.2578,35.643384 L184.2984,35.643384 L184.2984,35.684004 C186.76213,37.062685 190.11544,36.984588 192.95036,37.186926 C194.36782,37.288092 195.65571,37.450988 196.52488,37.71498 C197.39404,37.978972 197.64439,38.217691 197.74346,38.527371 L198.02806,38.446131 L198.79983,39.745956 L199.61222,39.217902 L200.46523,38.689848 L200.18089,37.755599 C199.74569,36.395296 198.50439,35.656897 197.25629,35.277808 C196.00818,34.898719 194.57919,34.773155 193.1131,34.668515 C190.1809,34.459234 187.02612,34.271559 185.55786,33.449929 L185.55786,33.490549 C182.83849,31.798618 179.89853,31.814969 177.23086,32.393822 C174.62278,32.959743 172.2072,33.999031 170.00059,34.546656 C169.98759,34.547516 169.97279,34.545826 169.95999,34.546656 C167.24279,34.723179 164.34786,34.282431 161.34865,34.181081 C158.36284,34.080188 155.20746,34.383797 152.16864,36.171437 C152.14074,36.187907 152.11534,36.195327 152.08744,36.212057 C149.33734,37.596667 146.70344,36.853189 143.63858,35.805862 C140.54184,34.74764 137.07037,33.320216 133.32122,34.587276 L133.24002,34.627896 L133.15882,34.668516 C130.06439,36.222486 126.74102,36.100233 123.1258,35.724624 C119.51058,35.349015 115.64982,34.678192 111.75233,35.602765 L111.63054,35.643385 L111.50875,35.724625 C108.15743,37.282246 104.76909,36.455601 100.98829,35.440288 C97.20749,34.424975 93.06957,33.181346 88.80243,34.790376 C86.02263,35.887273 83.24433,35.075425 80.10985,34.059224 C76.97538,33.043024 73.50409,31.831478 69.79249,33.084355 L69.5892,33.124975 L69.42672,33.246834 C67.11903,34.995286 64.7114,35.943289 62.19645,35.805864 C59.681501,35.668438 56.950851,34.459736 53.950681,31.459575 L53.950641,31.459574 Z M53.950641,16.836544 L52.163381,18.623803 C55.471761,21.932177 58.833671,23.524153 62.07454,23.701244 C65.20572,23.87234 68.11501,22.696965 70.68588,20.817258 C73.43267,19.925211 76.21235,20.819458 79.33784,21.832746 C82.48261,22.852285 86.00536,23.962077 89.69582,22.523278 C89.70882,22.518478 89.72382,22.527978 89.73642,22.523278 C93.0746,21.281615 96.53922,22.234256 100.33811,23.254429 C104.07733,24.258575 108.16185,25.276902 112.32087,23.457527 C115.57823,22.684809 119.12842,23.234245 122.84133,23.620005 C126.49969,24.000096 130.39842,24.173952 134.13356,22.3608 C136.88123,21.432198 139.66283,22.45781 142.82613,23.538766 C145.98944,24.619733 149.60065,25.706458 153.30597,23.782483 L153.34657,23.782483 L153.38707,23.741863 C155.89885,22.240182 158.46571,21.981791 161.26726,22.076462 C164.06881,22.171132 167.05462,22.650842 170.16293,22.442038 L170.24413,22.442038 L170.36593,22.401418 C172.91752,21.795399 175.44177,20.76014 177.7993,20.248583 C180.15683,19.737027 182.21738,19.738458 184.2578,21.020354 L184.2984,21.020354 C186.76213,22.399035 190.11544,22.361558 192.95036,22.563896 C194.36782,22.665062 195.65571,22.827958 196.52488,23.09195 C197.39404,23.355942 197.64439,23.594661 197.74346,23.90434 L198.0278,23.8231 L198.79957,25.122925 L199.61196,24.594871 L200.46497,24.066818 L200.18063,23.132568 C199.74543,21.772265 198.50413,21.033867 197.25603,20.654777 C196.00792,20.275687 194.57893,20.150124 193.11284,20.045485 C190.18064,19.836204 187.02586,19.648527 185.5576,18.826899 C182.84158,17.142507 179.89438,17.192784 177.2306,17.770791 C174.62252,18.336713 172.20694,19.376001 170.00033,19.923626 C169.98733,19.924485 169.97253,19.922795 169.95973,19.923626 C167.24253,20.100149 164.3476,19.6594 161.34839,19.55805 C158.36258,19.457145 155.2072,19.76077 152.16838,21.548407 C152.14038,21.564877 152.11508,21.572297 152.08718,21.589027 C149.33708,22.973637 146.70318,22.189538 143.63832,21.142212 C140.54158,20.083992 137.07011,18.697187 133.32096,19.964246 L133.23976,20.004866 L133.15856,20.045486 C130.06402,21.599456 126.74065,21.477202 123.12543,21.101593 C119.51021,20.725984 115.64945,20.055162 111.75196,20.979735 L111.63017,21.020355 L111.50838,21.060975 C108.15706,22.618598 104.76872,21.83257 100.98792,20.817257 C97.20712,19.801945 93.0692,18.558315 88.80206,20.167345 C86.02226,21.264243 83.24396,20.452394 80.10948,19.436194 C76.97501,18.419993 73.50372,17.167828 69.79212,18.420706 L69.58903,18.501946 L69.42655,18.623804 C67.11885,20.372256 64.71123,21.320258 62.19627,21.182834 C59.681321,21.04541 56.950671,19.836704 53.950511,16.836545 L53.950641,16.836544 Z M53.950641,2.822809 L52.163381,4.610068 C55.471761,7.918442 58.833671,9.551037 62.07454,9.728127 C65.17532,9.897563 68.05209,8.691712 70.60464,6.844141 C73.37726,5.908222 76.18208,6.795901 79.33784,7.81901 C82.48261,8.838549 86.00536,9.94834 89.69582,8.509542 C89.70882,8.504742 89.72362,8.514242 89.73642,8.509542 C93.07452,7.268018 96.53931,8.220545 100.33811,9.240693 C104.07756,10.244903 108.16158,11.263643 112.32087,9.443791 C115.57823,8.671073 119.12842,9.220509 122.84133,9.606269 C126.50391,9.986798 130.39443,10.166966 134.13356,8.347064 C134.14526,8.341364 134.16246,8.352764 134.17406,8.347064 C136.9088,7.441854 139.67805,8.489922 142.82602,9.565649 C145.98933,10.646616 149.60054,11.692722 153.30586,9.768747 L153.34636,9.768747 L153.38696,9.768747 C155.89874,8.267065 158.46559,8.008675 161.26714,8.103346 C164.0687,8.198016 167.05451,8.677726 170.16282,8.468922 L170.24402,8.428302 L170.36581,8.428302 C172.91741,7.822283 175.44165,6.746404 177.79919,6.234848 C180.15672,5.723291 182.21726,5.724722 184.25769,7.006619 L184.29819,7.006619 L184.29819,7.047239 C186.76192,8.425917 190.11524,8.347824 192.95015,8.550161 C194.36761,8.651327 195.6555,8.814223 196.52467,9.078215 C197.39384,9.342207 197.64418,9.621546 197.74326,9.931225 L198.02792,9.849985 L198.79969,11.10919 L199.61208,10.621756 L200.46509,10.093702 L200.18075,9.159453 C199.74555,7.79915 198.50425,7.060751 197.25615,6.681662 C196.00804,6.302573 194.57905,6.136389 193.11296,6.03175 C190.1982,5.823714 187.07786,5.662971 185.59834,4.853784 C185.58664,4.846284 185.56964,4.861184 185.55784,4.853784 C182.83846,3.161851 179.89851,3.218825 177.23084,3.797676 C174.56495,4.376141 172.08152,5.413018 169.83808,5.950511 C169.82508,5.951259 169.81028,5.949789 169.79748,5.950511 C167.12531,6.100965 164.29133,5.684377 161.34862,5.584935 C158.36286,5.484043 155.20736,5.747124 152.16861,7.534672 C152.14051,7.551172 152.11541,7.558542 152.08741,7.575292 C149.3373,8.959901 146.7034,8.216423 143.63854,7.169097 C140.5418,6.110877 137.07034,4.72407 133.32119,5.991131 L133.23999,5.991131 L133.15879,6.031751 C130.06436,7.585721 126.74098,7.463467 123.12577,7.087858 C119.51055,6.712249 115.64978,6.082046 111.7523,7.006618 L111.6305,7.006618 L111.50871,7.087858 C108.1574,8.645481 104.76905,7.818834 100.98825,6.803521 C97.20745,5.788209 93.06954,4.544578 88.8024,6.153609 C86.02259,7.250505 83.24429,6.438658 80.10982,5.422457 C76.97534,4.406257 73.50406,3.194713 69.79246,4.447589 L69.5891,4.528829 L69.42662,4.650687 C67.11893,6.39914 64.7113,7.347142 62.19635,7.209718 C59.681401,7.072294 56.950751,5.82297 53.950581,2.822809 L53.950641,2.822809 Z M20.860728,0.155911 C19.972259,0.155911 19.104873,0.230911 18.263366,0.392036 C22.771197,6.423935 22.230106,15.493116 33.074804,20.162078 C34.044617,18.284849 34.598875,16.155413 34.598875,13.89405 L34.598875,13.85112 C34.583667,6.274532 28.437342,0.15591 20.860728,0.15591 L20.860728,0.155911 Z M14.592713,1.679986 C10.162429,3.959907 7.122594,8.568545 7.122594,13.89405 C7.122594,20.279697 11.480139,25.619693 17.383268,27.159943 C7.118759,34.055042 7.113885,54.632167 0.253523,68.352898 L41.467942,68.352898 C34.607688,54.632391 34.60219,34.055385 24.338201,27.159943 C27.322716,26.378606 29.911941,24.634408 31.743914,22.265733 C19.336657,16.727545 22.641657,9.728941 14.592713,1.679986 L14.592713,1.679986 Z M21.053921,30.465683 C22.000999,30.465683 22.7693,31.235879 22.771197,32.182951 C22.771197,33.131373 22.002351,33.900219 21.053921,33.900219 C20.105504,33.900219 19.336657,33.131373 19.336657,32.182951 C19.336657,31.234531 20.105504,30.465683 21.053921,30.465683 L21.053921,30.465683 Z M21.053921,40.082381 C22.000999,40.082381 22.7693,40.852575 22.771197,41.799652 C22.771197,42.74807 22.002351,43.51692 21.053921,43.51692 C20.105504,43.51692 19.336657,42.74807 19.336657,41.799652 C19.336657,40.85123 20.105504,40.082381 21.053921,40.082381 L21.053921,40.082381 Z M21.053921,49.699081 C22.000999,49.699081 22.7693,50.469276 22.771197,51.416349 C22.771197,52.364766 22.002351,53.133616 21.053921,53.133616 C20.105504,53.133616 19.336657,52.364766 19.336657,51.416349 C19.336657,50.46793 20.105504,49.699081 21.053921,49.699081 L21.053921,49.699081 Z" id="path3891" sketch:type="MSShapeGroup"></path>
            <path d="M108.5839,78.172027 L108.5839,79.431232 L108.5839,142.51336 L108.5839,143.77256 L109.84311,143.77256 L198.14995,143.77256 L199.40916,143.77256 L199.40916,142.51336 L199.40916,79.431232 L199.40916,78.172027 L198.14995,78.172027 L109.84311,78.172027 L108.5839,78.172027 L108.5839,78.172027 Z M114.06754,80.690437 L193.8849,80.690437 L153.99653,109.20534 L114.06754,80.690437 L114.06754,80.690437 Z M111.10231,82.112121 L151.47812,110.95198 L111.10231,139.83247 L111.10231,82.112121 L111.10231,82.112121 Z M196.89075,82.112121 L196.89075,139.83247 L156.47432,110.9926 L196.89075,82.112121 L196.89075,82.112121 Z M153.99653,112.73924 L193.8849,141.25415 L114.06754,141.25415 L153.99653,112.73924 L153.99653,112.73924 Z" id="rect3893" sketch:type="MSShapeGroup"></path>
            <path d="M5.897743,82.437077 C4.155689,82.437077 2.72942,83.863346 2.72942,85.6054 C2.72942,87.34745 4.155689,88.7331 5.897743,88.7331 C7.639794,88.7331 9.066066,87.34745 9.066066,85.6054 L9.066066,85.56478 C9.062166,83.8252 7.637324,82.437077 5.897743,82.437077 L5.897743,82.437077 Z M15.199614,83.85876 L15.199614,87.63638 L90.91441,87.63638 L90.91441,83.85876 L15.199614,83.85876 L15.199614,83.85876 Z M5.735265,95.11037 C3.993211,95.11037 2.566942,96.53664 2.566942,98.27869 C2.566942,100.02074 3.993211,101.44701 5.735265,101.44701 C7.477316,101.44701 8.903588,100.02074 8.903588,98.27869 C8.899688,96.53911 7.474846,95.11037 5.735265,95.11037 L5.735265,95.11037 Z M15.199614,96.45081 L15.199614,100.26905 L90.91441,100.26905 L90.91441,96.45081 L15.199614,96.45081 L15.199614,96.45081 Z M5.897743,107.6618 C4.155689,107.6618 2.72942,109.08807 2.72942,110.83012 C2.72942,112.57218 4.155689,113.95783 5.897743,113.95783 C7.639794,113.95783 9.066066,112.57218 9.066066,110.83012 L9.066066,110.78952 C9.062166,109.04995 7.637324,107.66182 5.897743,107.66182 L5.897743,107.6618 Z M15.199614,109.08348 L15.199614,112.8611 L90.91441,112.8611 L90.91441,109.08348 L15.199614,109.08348 L15.199614,109.08348 Z M5.897743,120.33509 C4.155689,120.33509 2.72942,121.76137 2.72942,123.50342 C2.72942,125.24547 4.155689,126.67174 5.897743,126.67174 C7.639794,126.67174 9.066066,125.24547 9.066066,123.50342 C9.062166,121.76383 7.637324,120.33509 5.897743,120.33509 L5.897743,120.33509 Z M15.199614,122.00049 L15.199614,125.77811 L90.91441,125.77811 L90.91441,122.00049 L15.199614,122.00049 L15.199614,122.00049 Z M5.897743,132.96777 C4.155689,132.96777 2.72942,134.39404 2.72942,136.13609 C2.72942,137.87814 4.155689,139.2638 5.897743,139.2638 C7.639794,139.2638 9.066066,137.87814 9.066066,136.13609 C9.062166,134.39651 7.637324,132.96777 5.897743,132.96777 L5.897743,132.96777 Z M15.199614,134.63317 L15.199614,138.41079 L90.91441,138.41079 L90.91441,134.63317 L15.199614,134.63317 L15.199614,134.63317 Z" id="path3903" sketch:type="MSShapeGroup"></path>
        </g>
    </g>
</svg>