<?xml version="1.0" encoding="UTF-8" standalone="no"?>
<svg width="261px" height="126px" viewBox="0 0 261 126" version="1.1" xmlns="http://www.w3.org/2000/svg" xmlns:xlink="http://www.w3.org/1999/xlink" xmlns:sketch="http://www.bohemiancoding.com/sketch/ns">
    <!-- Generator: Sketch 3.4 (15588) - http://www.bohemiancoding.com/sketch -->
    <title>p_user-stories</title>
    <desc>Created with Sketch.</desc>
    <defs></defs>
    <g id="Page-1" stroke="none" stroke-width="1" fill="none" fill-rule="evenodd" sketch:type="MSPage">
        <g id="p_user-stories" sketch:type="MSLayerGroup" fill="#1B2564">
            <path d="M23.234552,25.160471 L22.762243,26.923134 L1.03625,108.00567 L0.563945,109.76833 L2.326608,110.24063 L58.731842,125.35436 L60.4945,125.82667 L60.966809,124.064 L82.692803,42.98148 L83.165103,41.218816 L81.402453,40.746513 L24.99721,25.632776 L23.234552,25.160471 L23.234552,25.160471 Z M25.815263,29.630406 L78.695173,43.799536 L57.913789,121.35674 L5.033881,107.1876 L25.815263,29.630406 L25.815263,29.630406 Z M50.951329,40.8761 C46.811519,39.766841 42.561972,42.220321 41.452717,46.360127 C40.51972,49.842129 42.114688,53.403996 45.106826,55.108647 C38.498271,57.370091 35.491916,68.59608 29.742822,75.07939 L52.216789,81.10127 C50.479586,72.61201 53.489006,61.386845 48.896546,56.1241 C52.340128,56.14389 55.502356,53.856716 56.435353,50.374713 L56.441553,50.352693 C57.540948,46.216547 55.085558,41.983797 50.95162,40.876113 L50.951329,40.8761 Z M44.624485,59.112069 L47.356613,59.84414 L46.073711,62.428672 L44.443243,61.991792 L44.624485,59.112069 L44.624485,59.112069 Z M44.279529,62.514687 L45.909984,62.951569 L45.329071,69.52625 L43.046134,70.37868 L41.495271,68.49899 L44.279529,62.514687 L44.279529,62.514687 Z M18.634423,77.58164 L18.067664,79.69683 L60.371579,91.03213 L60.938349,88.91695 L18.634423,77.58164 L18.634423,77.58164 Z M16.74521,84.63229 L16.178446,86.74748 L58.482369,98.08279 L59.049139,95.96758 L16.74521,84.63229 L16.74521,84.63229 Z M14.855991,91.68294 L14.289227,93.79815 L56.593146,105.13346 L57.159917,103.01825 L14.855991,91.68294 L14.855991,91.68294 Z M12.966775,98.73361 L12.400011,100.8488 L54.703936,112.1841 L55.270694,110.06891 L12.966775,98.73361 L12.966775,98.73361 Z" id="path2989" sketch:type="MSShapeGroup"></path>
            <path d="M87.799823,29.635705 L88.279553,31.426077 L110.00004,112.48806 L110.46957,114.24034 L112.22185,113.77081 L168.63763,98.65426 L170.38991,98.18472 L169.92038,96.43244 L148.19989,15.370469 L147.72016,13.580096 L145.96789,14.049618 L89.552103,29.166183 L87.799823,29.635705 L87.799823,29.635705 Z M92.25363,32.239314 L145.16487,18.061792 L165.94632,95.61921 L113.03509,109.79674 L92.25363,32.239314 L92.25363,32.239314 Z M118.53822,29.769115 C118.05617,29.898281 117.60277,30.089392 117.16961,30.299145 C120.49235,32.916515 121.51264,37.892989 128.07541,38.849612 C128.32868,37.690092 128.29569,36.471929 127.96708,35.244984 L127.95708,35.206894 C126.84731,31.098291 122.64942,28.667616 118.53858,29.769111 L118.53822,29.769115 Z M115.33441,31.52579 C113.26214,33.40688 112.29833,36.346465 113.07256,39.23592 C114.00092,42.700574 117.13648,44.967793 120.56326,44.945283 C115.99648,50.178614 118.98757,61.354592 117.26007,69.7964 L118.44096,69.47999 C118.42986,69.53329 118.40616,69.56239 118.39546,69.61468 L140.87035,63.59255 C140.82605,63.5426 140.79735,63.5111 140.75329,63.460592 L139.61049,63.766801 C133.9089,57.315781 130.89688,46.180772 124.3345,43.934789 C125.84021,43.07697 127.00825,41.737843 127.65787,40.186336 C120.12093,38.985266 120.8717,34.72274 115.33442,31.52579 L115.33441,31.52579 Z M123.02383,46.204892 C123.53769,46.067206 124.09262,46.388467 124.23134,46.902044 C124.36922,47.416625 124.03856,47.933567 123.52397,48.07145 C123.00939,48.209332 122.50266,47.916768 122.36478,47.402185 C122.22689,46.887601 122.50924,46.342775 123.02383,46.204892 L123.02383,46.204892 Z M124.4222,51.423637 C124.93604,51.285951 125.48076,51.569119 125.61948,52.082695 C125.75736,52.597279 125.43693,53.152314 124.92234,53.290195 C124.40775,53.428078 123.8908,53.097423 123.75293,52.582838 C123.61504,52.068255 123.90761,51.561518 124.4222,51.423637 L124.4222,51.423637 Z M125.82055,56.642383 C126.3344,56.504697 126.87913,56.787865 127.01784,57.30144 C127.15573,57.816023 126.83528,58.371059 126.32069,58.508942 C125.8061,58.646824 125.28917,58.316167 125.15129,57.801584 C125.0134,57.287 125.30597,56.780266 125.82055,56.642383 L125.82055,56.642383 Z M110.02152,77.37023 L110.5829,79.46535 L152.90426,68.12537 L152.34288,66.03026 L110.02152,77.37023 L110.02152,77.37023 Z M111.90981,84.41744 L112.4712,86.51255 L154.79254,75.17258 L154.23118,73.07747 L111.90981,84.41744 L111.90981,84.41744 Z M113.79811,91.46466 L114.3595,93.55975 L156.68086,82.21979 L156.11945,80.12468 L113.79811,91.46466 L113.79811,91.46466 Z M115.68641,98.51187 L116.24779,100.60697 L158.56915,89.26701 L158.00776,87.17188 L115.68641,98.51187 L115.68641,98.51187 Z" id="path3765" sketch:type="MSShapeGroup"></path>
            <path d="M200.13649,0.548667 L199.66325,2.283888 L177.973,83.36597 L177.49976,85.14062 L179.23498,85.61387 L235.66906,100.71818 L237.40428,101.19141 L237.87751,99.4562 L259.60721,18.374106 L260.08044,16.599451 L258.30579,16.126209 L201.91115,1.02191 L200.13649,0.548667 L200.13649,0.548667 Z M202.73932,5.005027 L255.62408,19.162843 L234.84089,96.73505 L181.95612,82.57723 L202.73932,5.005027 L202.73932,5.005027 Z M225.29718,16.520577 C222.02073,16.650875 219.05245,18.86555 218.15911,22.199477 C217.23435,25.650769 218.82157,29.185962 221.78731,30.875576 C215.35046,33.078597 212.35026,43.847252 206.84075,50.317924 L206.80145,50.317924 C206.75755,50.368434 206.68809,50.386294 206.64371,50.436241 L206.72261,50.475671 C206.66781,50.538901 206.62008,50.610484 206.56487,50.672855 L228.84667,56.627812 C228.83077,56.550902 228.82217,56.468548 228.80737,56.391193 L229.12286,56.470073 C229.10946,56.404633 229.09616,56.338623 229.08356,56.27289 L228.76807,56.19401 C227.22702,47.833694 230.04916,36.990197 225.57369,31.861497 C228.98933,31.883937 232.10192,29.635994 233.02724,26.182595 C234.11663,22.082844 231.68244,17.855112 227.58497,16.757198 C226.8156,16.551047 226.05373,16.490507 225.29764,16.520578 L225.29718,16.520577 Z M219.2239,34.464326 L221.31405,35.844615 C220.93591,36.348932 221.00321,36.647662 220.99856,36.988283 L218.47461,37.146029 L219.2239,34.464326 L219.2239,34.464326 Z M222.29998,35.805177 C222.42827,35.787097 222.56191,35.769687 222.69435,35.805177 C223.22334,35.946919 223.54488,36.498454 223.4042,37.027719 C223.26226,37.557451 222.71141,37.879522 222.18167,37.737581 C221.65193,37.595641 221.32986,37.044774 221.47181,36.51504 C221.57828,36.117742 221.91515,35.859443 222.29998,35.805177 L222.29998,35.805177 Z M226.44085,36.39673 L225.73099,39.078433 L223.64083,37.698144 C224.01899,37.193831 223.95168,36.895099 223.95633,36.554477 L226.44085,36.39673 L226.44085,36.39673 Z M195.56182,52.96019 L194.97027,55.089778 L237.28598,66.40814 L237.83809,64.278555 L195.56182,52.96019 L195.56182,52.96019 Z M193.66885,60.01938 L193.0773,62.109531 L235.393,73.46733 L235.98455,71.33774 L193.66885,60.01938 L193.66885,60.01938 Z M191.77589,67.03913 L191.22377,69.16871 L233.50003,80.52651 L234.09158,78.39693 L191.77589,67.03913 L191.77589,67.03913 Z M189.88293,74.09831 L189.33082,76.22791 L231.60706,87.54627 L232.19862,85.45613 L189.88293,74.09831 L189.88293,74.09831 Z" id="path3769" sketch:type="MSShapeGroup"></path>
        </g>
    </g>
</svg>