<?xml version="1.0" encoding="UTF-8" standalone="no"?>
<svg width="261px" height="117px" viewBox="0 0 261 117" version="1.1" xmlns="http://www.w3.org/2000/svg" xmlns:xlink="http://www.w3.org/1999/xlink" xmlns:sketch="http://www.bohemiancoding.com/sketch/ns">
    <!-- Generator: Sketch 3.4 (15588) - http://www.bohemiancoding.com/sketch -->
    <title>p_visual-design</title>
    <desc>Created with Sketch.</desc>
    <defs></defs>
    <g id="Page-1" stroke="none" stroke-width="1" fill="none" fill-rule="evenodd" sketch:type="MSPage">
        <g id="p_visual-design" sketch:type="MSLayerGroup" fill="#1B2564">
            <path d="M59.40625,0 C56.93511,0 54.9375,1.99761 54.9375,4.46875 L54.9375,76.21875 C54.9375,78.68989 56.93511,80.65625 59.40625,80.65625 L166.46875,80.65625 C168.93989,80.65625 170.9375,78.68989 170.9375,76.21875 L170.9375,4.46875 C170.9375,1.99761 168.93989,0 166.46875,0 L59.40625,0 L59.40625,0 Z M63.875,8.90625 L162,8.90625 L162,66.90625 L63.875,66.90625 L63.875,8.90625 L63.875,8.90625 Z" id="rect4024" sketch:type="MSShapeGroup"></path>
            <path d="M99.55411,77.61343 L126.31736,77.61343 C125.17505,88.73268 133.53923,91.07672 139.69899,95.45559 L86.17248,95.45559 C92.75447,91.46646 100.42643,88.48346 99.55411,77.61343 L99.55411,77.61343 Z" id="rect4028" sketch:type="MSShapeGroup"></path>
            <path d="M180.96875,55.03125 L180.96875,109.5 L255.96875,109.5 L255.96875,55.03125 L180.96875,55.03125 L180.96875,55.03125 Z M185.96875,60.03125 L250.96875,60.03125 L250.96875,100.03125 L185.96875,100.03125 L185.96875,60.03125 L185.96875,60.03125 Z" id="rect4031" sketch:type="MSShapeGroup"></path>
            <rect id="rect4033" sketch:type="MSShapeGroup" x="175.9807" y="105.0193" width="85" height="4.9806948"></rect>
            <path d="M3.34375,50.0625 C2.043239,50.0625 0.96875,51.136989 0.96875,52.4375 L0.96875,113.71875 C0.96875,115.01926 2.043239,116.0625 3.34375,116.0625 L38.65625,116.0625 C39.956761,116.0625 41,115.01926 41,113.71875 L41,52.4375 C41,51.136989 39.956761,50.0625 38.65625,50.0625 L3.34375,50.0625 L3.34375,50.0625 Z M8.5625,55.0625 L33.875,55.0625 C35.175511,55.0625 36.21875,56.13699 36.21875,57.4375 L36.21875,97.71875 C36.21875,99.01926 35.175511,100.0625 33.875,100.0625 L8.5625,100.0625 C7.261989,100.0625 6.21875,99.01926 6.21875,97.71875 L6.21875,57.4375 C6.21875,56.13699 7.261989,55.0625 8.5625,55.0625 L8.5625,55.0625 Z M21.5,105 C22.878753,105 23.997234,106.12125 24,107.5 C24,108.88071 22.880712,110 21.5,110 C20.119288,110 19,108.88071 19,107.5 C19,106.11929 20.119288,105 21.5,105 L21.5,105 Z" id="rect4037" sketch:type="MSShapeGroup"></path>
        </g>
    </g>
</svg>