<svg xmlns="http://www.w3.org/2000/svg" width="280" height="165"><path d="M-404.07-257.29c-13.758 0-24.91 11.153-24.91 24.91 0 11.572 7.91 21.255 18.604 24.055-18.612 12.502-18.62 49.813-31.06 74.692h74.73c-12.44-24.88-12.447-62.19-31.06-74.692 10.694-2.8 18.606-12.483 18.606-24.054v-.077c-.028-13.738-11.173-24.832-24.91-24.832zm-4.477 61.77h9.108l-1.828 9.108h-5.45l-1.83-9.108zm1.752 10.86h5.45l3.62 20.862-6.346 4.554-6.345-4.554 3.62-20.862zM-314.12-257.29c-1.612 0-3.185.137-4.71.43 8.173 10.936 7.192 27.38 26.856 35.846 1.758-3.404 2.763-7.265 2.763-11.365v-.077c-.028-13.738-11.173-24.832-24.91-24.832zm-11.366 2.764c-8.033 4.134-13.545 12.49-13.545 22.147 0 11.58 7.9 21.262 18.604 24.055-18.612 12.502-18.62 49.813-31.06 74.692h74.73c-12.44-24.878-12.45-62.19-31.06-74.692 5.412-1.417 10.107-4.58 13.43-8.874-22.498-10.04-16.506-22.73-31.1-37.326zm11.715 52.195c1.717 0 3.11 1.396 3.113 3.113 0 1.72-1.394 3.114-3.114 3.114s-3.114-1.395-3.114-3.114c0-1.72 1.394-3.114 3.113-3.114zm0 17.436c1.717 0 3.11 1.397 3.113 3.114 0 1.72-1.394 3.114-3.114 3.114s-3.114-1.394-3.114-3.114 1.394-3.114 3.113-3.114zm0 17.437c1.717 0 3.11 1.397 3.113 3.114 0 1.72-1.394 3.114-3.114 3.114s-3.114-1.393-3.114-3.113 1.394-3.114 3.113-3.114zM-224.17-257.29c-13.76 0-24.912 11.153-24.912 24.91 0 11.572 7.912 21.255 18.605 24.055-18.61 12.503-18.62 49.814-31.06 74.692h74.73c-12.438-24.88-12.447-62.19-31.06-74.692 10.705-2.793 18.606-12.476 18.606-24.054v-.077c-.028-13.738-11.173-24.832-24.91-24.832zm-11.406 62.393l7.707 2.57c-.76 1.894-.27 2.783 0 3.852l-7.706 2.57v-8.992zm24.288 0v8.99l-7.707-2.568c.76-1.894.272-2.784 0-3.853l7.707-2.57zm-12.222 1.285c1.774 0 3.227 1.457 3.23 3.23 0 1.776-1.454 3.192-3.23 3.192s-3.23-1.416-3.23-3.192c0-1.776 1.454-3.23 3.23-3.23zM30 25v30h220V25H30zm3 2.156h4.344L33 39.344V27.156zm9.625 0h10l-9.25 25.875h-10l9.25-25.874zm15.063 0h10l-9.22 25.875h-10l9.22-25.874zm14.906 0h10l-9.22 25.875h-10l9.22-25.874zm15.094 0h10l-9.22 25.875h-10l9.22-25.874zm14.812 0h10l-9.22 25.875h-10l9.22-25.874zm15.094 0h10l-9.22 25.875h-10l9.22-25.874zm15 0h10l-9.25 25.875h-10l9.25-25.874zm15.156 0h10l-9.22 25.875h-10l9.22-25.874zm14.906 0h10l-9.22 25.875h-10l9.22-25.874zm14.906 0h10l-9.218 25.875h-10l9.22-25.874zm15 0h10l-9.218 25.875h-10l9.22-25.874zm15 0h10l-9.218 25.875h-10l9.22-25.874zm15 0h10l-9.218 25.875h-10l9.22-25.874zm15.157 0h10L238.5 53.03h-10l9.22-25.874zm8.843 13.657V53h-4.344l4.343-12.188zM63.194 60h20L55.51 155h-20zM206.706 60h-20l27.683 95h20z" fill="#ccc" fill-rule="evenodd"/></svg>