<svg xmlns="http://www.w3.org/2000/svg" width="280" height="165"><path d="M172.473-190.14c-3.88.17-6.976 2.057-7.422 4.817-.547 3.397 3.136 6.838 8.23 7.66 5.096.824 9.658-1.27 10.206-4.668.537-3.394-3.142-6.81-8.23-7.632-.955-.154-1.887-.22-2.783-.18zm-7.6 6.193c-18.384.286-35.21 10.518-44.742 26.396-21.21 2.06-35.88 8.608-37.467 18.433-2.623 16.253 31.5 35.28 76.193 42.496 44.695 7.214 83.056-.118 85.68-16.37v-.06c1.476-9.475-9.51-19.883-27.772-28.34-3.853-18.09-16.37-33.197-33.547-39.474-.008.14-.008.277-.03.42-.55 3.396-5.14 5.52-10.235 4.697-5.096-.822-8.748-4.264-8.2-7.66.03-.183.068-.365.12-.54zm-3.054 5.267l.568.78c-12.804 9.18-19.82 18.556-23.642 25.616-3.822 7.06-4.46 11.76-4.46 11.76l-.927-.12s.66-4.94 4.548-12.12c3.887-7.18 10.99-16.65 23.91-25.916zm18.434 5.118c5.252 6.843 7.207 17.61 7.9 26.664.694 9.055.09 16.43.09 16.43l-.957-.09s.597-7.307-.09-16.28c-.688-8.973-2.696-19.58-7.72-26.126l.777-.598zm-62.966 30.226c13.342 6.612 29.377 11.79 46.985 14.634 17.57 2.836 34.388 2.96 49.11.898-.265.873-.505 1.72-.808 2.573-14.547 2.14-31.288 2.07-48.75-.75-17.497-2.823-33.387-8.036-46.537-14.663-.02-.903-.026-1.783 0-2.693zm-2.095 5.357c13.672 6.776 30.11 12.08 48.152 14.994 18.004 2.906 35.252 3.042 50.337.927-.27.896-.527 1.792-.838 2.665-14.906 2.192-32.053 2.08-49.948-.808-17.928-2.894-34.228-8.203-47.703-14.993-.02-.925-.027-1.85 0-2.783zm-2.064 5.357c14 6.94 30.81 12.37 49.288 15.353 18.438 2.976 36.114 3.123 51.563.957-.276.917-.548 1.83-.867 2.724-15.266 2.246-32.848 2.15-51.174-.807-18.362-2.964-35.042-8.428-48.84-15.383-.022-.947 0-1.887.03-2.843z" fill="#ccc" fill-rule="evenodd"/><path d="M50.963-237.706l-8.055 64.44 8.055 64.44 8.055-64.44z" fill="#ccc"/><path d="M115.403-173.266l-64.44-8.055-64.44 8.054 64.44 8.055z" fill="#ccc"/><path d="M79.947-202.25L47.34-176.89 21.978-144.28l32.608-25.36z" fill="#ccc"/><path d="M79.947-144.282l-25.36-32.607-32.61-25.36 25.363 32.607z" fill="#ccc"/><path d="M54.74-173.54a4.196 4.196 0 1 1 0-.007" fill="#fff" fill-rule="evenodd"/><path d="M74.602-173.588a23.86 23.185 0 1 1 0-.047" fill="none" stroke="#ccc" stroke-width="2.131" stroke-linecap="round" stroke-linejoin="round"/><path d="M146.802 38.616l-14.166 6.445c.926-.305 1.97-.41 3.127-.35 2.416.127 5.27.953 8.136 2.424 2.86 1.47 5.22 3.314 6.73 5.2.148.184.286.392.416.575.022-.075.04-.15.064-.224.748-2.3 2.303-4.855 4.467-7.243 2.163-2.387 4.547-4.166 6.764-5.136 1.11-.486 2.178-.746 3.19-.766 1.014-.02 2.002.22 2.745.894.743.673 1.133 1.67 1.212 2.68.08 1.01-.104 2.072-.478 3.223-.312.954-.767 1.955-1.34 2.967l22.46-10.688h-43.327zm46.934 0l.223.446-28.62 13.624c-.25.303-.528.595-.798.893-1.47 1.622-3.04 2.957-4.594 3.956h41.987l41.605-18.92h-49.804zm55.164 2.042l-44.157 20.068v32.448L248.9 73.106V40.658zm-83.305.893c-.642.013-1.526.232-2.457.64-1.86.814-4.065 2.42-6.062 4.625-1.997 2.205-3.392 4.577-4.02 6.51-.314.965-.434 1.816-.383 2.456.018.232.046.432.096.607L164 51.06c1.473-1.848 2.543-3.733 3.062-5.33.315-.965.434-1.848.383-2.488-.05-.64-.255-1.048-.542-1.308-.288-.26-.666-.396-1.308-.383zm-33.884 3.925l-26.544 12.06h32.51c-2.546-1.403-4.643-3.085-6.03-4.817-.754-.945-1.28-1.93-1.562-2.904-.28-.973-.3-1.98.16-2.87.325-.634.85-1.113 1.467-1.47zm3.255 1.277c-.703.014-1.332.094-1.786.255-.607.214-.94.516-1.118.86-.177.346-.21.756-.032 1.373s.61 1.408 1.244 2.202c1.27 1.586 3.384 3.3 6.03 4.658 1.202.617 2.395 1.076 3.542 1.436h7.115c.104-.105.193-.228.256-.35.176-.347.244-.788.064-1.405s-.61-1.376-1.244-2.17c-1.27-1.584-3.42-3.3-6.062-4.657-2.646-1.36-5.246-2.095-7.275-2.2-.254-.015-.5-.006-.734 0zm23.866 9.03l-3.158 1.53c.41-.114.843-.274 1.308-.478.593-.26 1.206-.64 1.85-1.053zm-57.206 3.38L39.76 87.273h48.177l56.95-27.12c-.79-.13-1.612-.316-2.456-.574h-40.806v-.415zm49.518.416c-.682.645-1.26 1.263-1.5 1.754-.33.68-.395 1.238-.32 1.947.153 1.416 1.04 3.32 1.405 5.997l-2.01.255c-.32-2.337-1.224-4.064-1.436-6.03-.078-.737-.047-1.52.192-2.297l-54.75 26.067h43.775l60.94-27.694h-40.935c.856.643 1.593 1.366 2.17 2.17 1.49 2.074 1.966 4.627 1.595 7.433l-2.01-.254c.322-2.433-.09-4.39-1.245-5.998-.97-1.35-2.62-2.473-4.913-3.35h-.958zm51.56 2.073l-64.067 29.13v32.45L202.7 94.1V61.65zM248.9 75.34l-44.157 20.068v34.745l44.157-20.07V75.34zM34.846 89.504l-.35.16V123.9h50.792V91.355H34.846v-1.85zm52.484 1.85V123.9h47.22V91.355H87.33zm115.37 4.978l-64.065 29.13v34.745l64.066-29.13V96.333zM34.496 125.94v35.193h50.793V125.94H34.495zm52.835 0v35.193h47.22V125.94H87.33z" fill="#ccc"/></svg>