<svg xmlns="http://www.w3.org/2000/svg" width="280" height="165"><path d="M188.914 29.912c-5.174-5.173-13.545-5.173-18.72 0-4.35 4.352-5.025 10.974-2.057 16.048-5.355-1.05-11.204 1.333-17.313 4.66 1.466 3.005 3.395 5.835 5.785 8.4l3.976-2.81 2.044 2.044-2.74 3.88c2.676 2.215 5.614 3.956 8.692 5.243 3.142-5.876 5.312-11.508 4.297-16.674 5.073 2.968 11.696 2.293 16.048-2.06l.028-.026c5.155-5.177 5.124-13.54-.042-18.705zm-24.907 21.542l3.42 3.42-4.1 2.74-2.046-2.044 2.727-4.116z" fill="#ccc" fill-rule="evenodd"/><path d="M205.99 10.888c-16.683-16.684-51.175-6.675-70.088 25.588-11.067 18.88-25.447 51.822-30.038 61.19l15.575 15.574c9.218-4.788 40.77-20.51 61.188-30.038l.097-.097c32.172-18.82 39.958-55.525 23.266-72.217zM194.77 24.14c10.68 10.68 10.714 27.988.056 38.69l-.042.04c-10.694 10.695-28.035 10.68-38.73-.013-10.694-10.695-10.694-28.022 0-38.716 10.695-10.693 28.022-10.693 38.716 0z" fill="#ccc" fill-rule="evenodd"/><path d="M103.64 99.89l-6.677 15.576 6.676 6.675 15.574-6.674zM103.64 95.44l8.9-22.25c-14.157-8.702-40.9 2.51-57.853 8.9 17.8 8.9 38.188.178 48.952 13.35zM123.174 114.976l22.25-8.9c8.703 14.156-4.243 39.164-10.635 56.116-8.9-17.8 1.556-36.452-11.616-47.216z" fill="#ccc"/></svg>