<svg xmlns="http://www.w3.org/2000/svg" width="280" height="165"><path d="M-160.39-15.225c-1.624 6.967-5.684 12.436-11.624 14.484-5.935 2.046-12.504.253-18.074-4.224-.343 4.138.197 8.664 1.75 13.17 4.54 13.16 15.98 21.146 25.563 17.842 9.583-3.305 13.67-16.647 9.13-29.807l-.017-.048c-1.557-4.496-3.91-8.377-6.728-11.417zM-162.903-17.964a14.24 9.594-19.028 1 1-.006-.02M-170.742-23.96a8.224 6.853-19.028 1 1-.005-.013" fill="#ccc" fill-rule="evenodd"/><path d="M-158.5-5.275c6.12-3.33 9.826-8.83 11.975-15.728M-155.59 10.322c6.872-1.15 13.18.897 19.123 5.003M-156.235 2.628c6.903-.946 12.317-4.775 16.77-10.462M-179.98 16.192c-5.05 4.802-7.204 11.073-7.495 18.29M-186.826 1.88c-6.34 2.89-12.963 2.544-19.767.116M-184.212 9.144c-6.424 2.7-10.66 7.8-13.492 14.447" fill="none" stroke="#ccc" stroke-width="4.386" stroke-linecap="round"/><path d="M-220.836-51.255c-8.957 4.712-18.567 5.432-26.257.974-7.686-4.455-11.85-13.143-12.217-23.25-4.745 3.467-9.088 8.235-12.47 14.068-9.876 17.04-7.828 36.676 4.58 43.868 12.408 7.193 30.465-.79 40.343-17.83l.036-.063c3.367-5.83 5.342-11.938 5.984-17.768zM-220.232-56.48a20.15 13.574 30.1 1 1 .014-.024M-221.076-70.418a11.635 9.696 30.1 1 1 .01-.017" fill="#ccc" fill-rule="evenodd"/><path d="M-229.73-40.02c9.23 3.463 18.545 2.334 27.913-1.752M-243.723-22.468c7.593 6.29 11.243 14.932 12.353 25.092M-236.09-30.28c7.405 6.51 16.514 8.755 26.722 8.255M-272.585-43.126c-9.813-.956-18.517 2.546-26.51 8.917M-263.612-63.702c-8.962-4.11-14.724-11.513-18.427-21.04M-268.964-54.18c-8.836-4.37-18.217-4.182-27.947-1.057" fill="none" stroke="#ccc" stroke-width="6.205" stroke-linecap="round"/><path d="M-332.298-20.06c-1.787 7.662-6.253 13.678-12.787 15.93-6.528 2.253-13.755.28-19.883-4.645-.376 4.553.217 9.532 1.926 14.487 4.993 14.477 17.58 23.263 28.12 19.627 10.54-3.636 15.036-18.312 10.043-32.79l-.017-.053c-1.714-4.945-4.3-9.215-7.4-12.558zM-335.063-23.075a15.666 10.554-19.028 1 1-.007-.02M-343.686-29.67a9.046 7.538-19.028 1 1-.005-.014" fill="#ccc" fill-rule="evenodd"/><path d="M-330.218-9.116c6.732-3.665 10.807-9.715 13.17-17.3M-327.02 8.04c7.56-1.264 14.5.988 21.038 5.504M-327.728-.423c7.594-1.04 13.55-5.253 18.45-11.51M-353.848 14.498c-5.554 5.282-7.925 12.18-8.245 20.12M-361.38-1.246c-6.974 3.178-14.26 2.798-21.743.128M-358.503 6.745c-7.066 2.97-11.728 8.58-14.842 15.892" fill="none" stroke="#ccc" stroke-width="4.825" stroke-linecap="round"/><path d="M73.406 42c-2.47 0-4.47 1.998-4.47 4.47v71.75c0 2.47 2 4.436 4.47 4.436H180.47c2.47 0 4.468-1.966 4.468-4.437V46.47c0-2.472-1.998-4.47-4.47-4.47H73.407zm4.47 8.906H176v58H77.875v-58z" fill="#ccc" fill-rule="evenodd"/><path d="M113.554 119.613h26.763c-1.142 11.12 7.222 13.464 13.382 17.843H100.17c6.582-3.99 14.254-6.973 13.382-17.843zM194.97 97.03v54.47h75V97.03h-75zm5 5h65v40h-65v-40z" fill="#ccc" fill-rule="evenodd"/><rect width="85" height="4.981" ry="2.49" x="189.981" y="147.019" fill="#ccc" fill-rule="evenodd"/><path d="M17.344 92.063c-1.3 0-2.375 1.074-2.375 2.374v61.282c0 1.3 1.073 2.343 2.374 2.343h35.312c1.3 0 2.344-1.044 2.344-2.344V94.437c0-1.3-1.043-2.376-2.344-2.376H17.344zm5.218 5h25.313c1.3 0 2.344 1.074 2.344 2.374v40.282c0 1.3-1.044 2.343-2.345 2.343H22.562c-1.3 0-2.343-1.044-2.343-2.344V99.437c0-1.3 1.042-2.376 2.343-2.376zM35.5 147c1.38 0 2.497 1.12 2.5 2.5 0 1.38-1.12 2.5-2.5 2.5s-2.5-1.12-2.5-2.5 1.12-2.5 2.5-2.5z" fill="#ccc" fill-rule="evenodd"/></svg>